%TF.GenerationSoftware,KiCad,Pcbnew,7.0.10*%
%TF.CreationDate,2024-05-15T16:53:24+02:00*%
%TF.ProjectId,ledrunner,6c656472-756e-46e6-9572-2e6b69636164,rev?*%
%TF.SameCoordinates,Original*%
%TF.FileFunction,Legend,Top*%
%TF.FilePolarity,Positive*%
%FSLAX46Y46*%
G04 Gerber Fmt 4.6, Leading zero omitted, Abs format (unit mm)*
G04 Created by KiCad (PCBNEW 7.0.10) date 2024-05-15 16:53:24*
%MOMM*%
%LPD*%
G01*
G04 APERTURE LIST*
%ADD10C,0.150000*%
%ADD11C,0.120000*%
G04 APERTURE END LIST*
D10*
X126587142Y-137641580D02*
X126539523Y-137689200D01*
X126539523Y-137689200D02*
X126396666Y-137736819D01*
X126396666Y-137736819D02*
X126301428Y-137736819D01*
X126301428Y-137736819D02*
X126158571Y-137689200D01*
X126158571Y-137689200D02*
X126063333Y-137593961D01*
X126063333Y-137593961D02*
X126015714Y-137498723D01*
X126015714Y-137498723D02*
X125968095Y-137308247D01*
X125968095Y-137308247D02*
X125968095Y-137165390D01*
X125968095Y-137165390D02*
X126015714Y-136974914D01*
X126015714Y-136974914D02*
X126063333Y-136879676D01*
X126063333Y-136879676D02*
X126158571Y-136784438D01*
X126158571Y-136784438D02*
X126301428Y-136736819D01*
X126301428Y-136736819D02*
X126396666Y-136736819D01*
X126396666Y-136736819D02*
X126539523Y-136784438D01*
X126539523Y-136784438D02*
X126587142Y-136832057D01*
X127539523Y-137736819D02*
X126968095Y-137736819D01*
X127253809Y-137736819D02*
X127253809Y-136736819D01*
X127253809Y-136736819D02*
X127158571Y-136879676D01*
X127158571Y-136879676D02*
X127063333Y-136974914D01*
X127063333Y-136974914D02*
X126968095Y-137022533D01*
X128158571Y-136736819D02*
X128253809Y-136736819D01*
X128253809Y-136736819D02*
X128349047Y-136784438D01*
X128349047Y-136784438D02*
X128396666Y-136832057D01*
X128396666Y-136832057D02*
X128444285Y-136927295D01*
X128444285Y-136927295D02*
X128491904Y-137117771D01*
X128491904Y-137117771D02*
X128491904Y-137355866D01*
X128491904Y-137355866D02*
X128444285Y-137546342D01*
X128444285Y-137546342D02*
X128396666Y-137641580D01*
X128396666Y-137641580D02*
X128349047Y-137689200D01*
X128349047Y-137689200D02*
X128253809Y-137736819D01*
X128253809Y-137736819D02*
X128158571Y-137736819D01*
X128158571Y-137736819D02*
X128063333Y-137689200D01*
X128063333Y-137689200D02*
X128015714Y-137641580D01*
X128015714Y-137641580D02*
X127968095Y-137546342D01*
X127968095Y-137546342D02*
X127920476Y-137355866D01*
X127920476Y-137355866D02*
X127920476Y-137117771D01*
X127920476Y-137117771D02*
X127968095Y-136927295D01*
X127968095Y-136927295D02*
X128015714Y-136832057D01*
X128015714Y-136832057D02*
X128063333Y-136784438D01*
X128063333Y-136784438D02*
X128158571Y-136736819D01*
X126616809Y-84156628D02*
X126616809Y-84632819D01*
X126283476Y-83632819D02*
X126616809Y-84156628D01*
X126616809Y-84156628D02*
X126950142Y-83632819D01*
X127235857Y-83728057D02*
X127283476Y-83680438D01*
X127283476Y-83680438D02*
X127378714Y-83632819D01*
X127378714Y-83632819D02*
X127616809Y-83632819D01*
X127616809Y-83632819D02*
X127712047Y-83680438D01*
X127712047Y-83680438D02*
X127759666Y-83728057D01*
X127759666Y-83728057D02*
X127807285Y-83823295D01*
X127807285Y-83823295D02*
X127807285Y-83918533D01*
X127807285Y-83918533D02*
X127759666Y-84061390D01*
X127759666Y-84061390D02*
X127188238Y-84632819D01*
X127188238Y-84632819D02*
X127807285Y-84632819D01*
X123968142Y-86649580D02*
X123920523Y-86697200D01*
X123920523Y-86697200D02*
X123777666Y-86744819D01*
X123777666Y-86744819D02*
X123682428Y-86744819D01*
X123682428Y-86744819D02*
X123539571Y-86697200D01*
X123539571Y-86697200D02*
X123444333Y-86601961D01*
X123444333Y-86601961D02*
X123396714Y-86506723D01*
X123396714Y-86506723D02*
X123349095Y-86316247D01*
X123349095Y-86316247D02*
X123349095Y-86173390D01*
X123349095Y-86173390D02*
X123396714Y-85982914D01*
X123396714Y-85982914D02*
X123444333Y-85887676D01*
X123444333Y-85887676D02*
X123539571Y-85792438D01*
X123539571Y-85792438D02*
X123682428Y-85744819D01*
X123682428Y-85744819D02*
X123777666Y-85744819D01*
X123777666Y-85744819D02*
X123920523Y-85792438D01*
X123920523Y-85792438D02*
X123968142Y-85840057D01*
X124920523Y-86744819D02*
X124349095Y-86744819D01*
X124634809Y-86744819D02*
X124634809Y-85744819D01*
X124634809Y-85744819D02*
X124539571Y-85887676D01*
X124539571Y-85887676D02*
X124444333Y-85982914D01*
X124444333Y-85982914D02*
X124349095Y-86030533D01*
X125301476Y-85840057D02*
X125349095Y-85792438D01*
X125349095Y-85792438D02*
X125444333Y-85744819D01*
X125444333Y-85744819D02*
X125682428Y-85744819D01*
X125682428Y-85744819D02*
X125777666Y-85792438D01*
X125777666Y-85792438D02*
X125825285Y-85840057D01*
X125825285Y-85840057D02*
X125872904Y-85935295D01*
X125872904Y-85935295D02*
X125872904Y-86030533D01*
X125872904Y-86030533D02*
X125825285Y-86173390D01*
X125825285Y-86173390D02*
X125253857Y-86744819D01*
X125253857Y-86744819D02*
X125872904Y-86744819D01*
X129762142Y-83076580D02*
X129714523Y-83124200D01*
X129714523Y-83124200D02*
X129571666Y-83171819D01*
X129571666Y-83171819D02*
X129476428Y-83171819D01*
X129476428Y-83171819D02*
X129333571Y-83124200D01*
X129333571Y-83124200D02*
X129238333Y-83028961D01*
X129238333Y-83028961D02*
X129190714Y-82933723D01*
X129190714Y-82933723D02*
X129143095Y-82743247D01*
X129143095Y-82743247D02*
X129143095Y-82600390D01*
X129143095Y-82600390D02*
X129190714Y-82409914D01*
X129190714Y-82409914D02*
X129238333Y-82314676D01*
X129238333Y-82314676D02*
X129333571Y-82219438D01*
X129333571Y-82219438D02*
X129476428Y-82171819D01*
X129476428Y-82171819D02*
X129571666Y-82171819D01*
X129571666Y-82171819D02*
X129714523Y-82219438D01*
X129714523Y-82219438D02*
X129762142Y-82267057D01*
X130714523Y-83171819D02*
X130143095Y-83171819D01*
X130428809Y-83171819D02*
X130428809Y-82171819D01*
X130428809Y-82171819D02*
X130333571Y-82314676D01*
X130333571Y-82314676D02*
X130238333Y-82409914D01*
X130238333Y-82409914D02*
X130143095Y-82457533D01*
X131666904Y-83171819D02*
X131095476Y-83171819D01*
X131381190Y-83171819D02*
X131381190Y-82171819D01*
X131381190Y-82171819D02*
X131285952Y-82314676D01*
X131285952Y-82314676D02*
X131190714Y-82409914D01*
X131190714Y-82409914D02*
X131095476Y-82457533D01*
X152455714Y-117094819D02*
X152455714Y-116094819D01*
X152455714Y-116094819D02*
X152693809Y-116094819D01*
X152693809Y-116094819D02*
X152836666Y-116142438D01*
X152836666Y-116142438D02*
X152931904Y-116237676D01*
X152931904Y-116237676D02*
X152979523Y-116332914D01*
X152979523Y-116332914D02*
X153027142Y-116523390D01*
X153027142Y-116523390D02*
X153027142Y-116666247D01*
X153027142Y-116666247D02*
X152979523Y-116856723D01*
X152979523Y-116856723D02*
X152931904Y-116951961D01*
X152931904Y-116951961D02*
X152836666Y-117047200D01*
X152836666Y-117047200D02*
X152693809Y-117094819D01*
X152693809Y-117094819D02*
X152455714Y-117094819D01*
X153979523Y-117094819D02*
X153408095Y-117094819D01*
X153693809Y-117094819D02*
X153693809Y-116094819D01*
X153693809Y-116094819D02*
X153598571Y-116237676D01*
X153598571Y-116237676D02*
X153503333Y-116332914D01*
X153503333Y-116332914D02*
X153408095Y-116380533D01*
X154360476Y-116190057D02*
X154408095Y-116142438D01*
X154408095Y-116142438D02*
X154503333Y-116094819D01*
X154503333Y-116094819D02*
X154741428Y-116094819D01*
X154741428Y-116094819D02*
X154836666Y-116142438D01*
X154836666Y-116142438D02*
X154884285Y-116190057D01*
X154884285Y-116190057D02*
X154931904Y-116285295D01*
X154931904Y-116285295D02*
X154931904Y-116380533D01*
X154931904Y-116380533D02*
X154884285Y-116523390D01*
X154884285Y-116523390D02*
X154312857Y-117094819D01*
X154312857Y-117094819D02*
X154931904Y-117094819D01*
X128959142Y-142129819D02*
X128625809Y-141653628D01*
X128387714Y-142129819D02*
X128387714Y-141129819D01*
X128387714Y-141129819D02*
X128768666Y-141129819D01*
X128768666Y-141129819D02*
X128863904Y-141177438D01*
X128863904Y-141177438D02*
X128911523Y-141225057D01*
X128911523Y-141225057D02*
X128959142Y-141320295D01*
X128959142Y-141320295D02*
X128959142Y-141463152D01*
X128959142Y-141463152D02*
X128911523Y-141558390D01*
X128911523Y-141558390D02*
X128863904Y-141606009D01*
X128863904Y-141606009D02*
X128768666Y-141653628D01*
X128768666Y-141653628D02*
X128387714Y-141653628D01*
X129911523Y-142129819D02*
X129340095Y-142129819D01*
X129625809Y-142129819D02*
X129625809Y-141129819D01*
X129625809Y-141129819D02*
X129530571Y-141272676D01*
X129530571Y-141272676D02*
X129435333Y-141367914D01*
X129435333Y-141367914D02*
X129340095Y-141415533D01*
X130530571Y-141129819D02*
X130625809Y-141129819D01*
X130625809Y-141129819D02*
X130721047Y-141177438D01*
X130721047Y-141177438D02*
X130768666Y-141225057D01*
X130768666Y-141225057D02*
X130816285Y-141320295D01*
X130816285Y-141320295D02*
X130863904Y-141510771D01*
X130863904Y-141510771D02*
X130863904Y-141748866D01*
X130863904Y-141748866D02*
X130816285Y-141939342D01*
X130816285Y-141939342D02*
X130768666Y-142034580D01*
X130768666Y-142034580D02*
X130721047Y-142082200D01*
X130721047Y-142082200D02*
X130625809Y-142129819D01*
X130625809Y-142129819D02*
X130530571Y-142129819D01*
X130530571Y-142129819D02*
X130435333Y-142082200D01*
X130435333Y-142082200D02*
X130387714Y-142034580D01*
X130387714Y-142034580D02*
X130340095Y-141939342D01*
X130340095Y-141939342D02*
X130292476Y-141748866D01*
X130292476Y-141748866D02*
X130292476Y-141510771D01*
X130292476Y-141510771D02*
X130340095Y-141320295D01*
X130340095Y-141320295D02*
X130387714Y-141225057D01*
X130387714Y-141225057D02*
X130435333Y-141177438D01*
X130435333Y-141177438D02*
X130530571Y-141129819D01*
X142478333Y-114119580D02*
X142430714Y-114167200D01*
X142430714Y-114167200D02*
X142287857Y-114214819D01*
X142287857Y-114214819D02*
X142192619Y-114214819D01*
X142192619Y-114214819D02*
X142049762Y-114167200D01*
X142049762Y-114167200D02*
X141954524Y-114071961D01*
X141954524Y-114071961D02*
X141906905Y-113976723D01*
X141906905Y-113976723D02*
X141859286Y-113786247D01*
X141859286Y-113786247D02*
X141859286Y-113643390D01*
X141859286Y-113643390D02*
X141906905Y-113452914D01*
X141906905Y-113452914D02*
X141954524Y-113357676D01*
X141954524Y-113357676D02*
X142049762Y-113262438D01*
X142049762Y-113262438D02*
X142192619Y-113214819D01*
X142192619Y-113214819D02*
X142287857Y-113214819D01*
X142287857Y-113214819D02*
X142430714Y-113262438D01*
X142430714Y-113262438D02*
X142478333Y-113310057D01*
X143430714Y-114214819D02*
X142859286Y-114214819D01*
X143145000Y-114214819D02*
X143145000Y-113214819D01*
X143145000Y-113214819D02*
X143049762Y-113357676D01*
X143049762Y-113357676D02*
X142954524Y-113452914D01*
X142954524Y-113452914D02*
X142859286Y-113500533D01*
X38631905Y-78994819D02*
X38631905Y-77994819D01*
X38631905Y-77994819D02*
X38870000Y-77994819D01*
X38870000Y-77994819D02*
X39012857Y-78042438D01*
X39012857Y-78042438D02*
X39108095Y-78137676D01*
X39108095Y-78137676D02*
X39155714Y-78232914D01*
X39155714Y-78232914D02*
X39203333Y-78423390D01*
X39203333Y-78423390D02*
X39203333Y-78566247D01*
X39203333Y-78566247D02*
X39155714Y-78756723D01*
X39155714Y-78756723D02*
X39108095Y-78851961D01*
X39108095Y-78851961D02*
X39012857Y-78947200D01*
X39012857Y-78947200D02*
X38870000Y-78994819D01*
X38870000Y-78994819D02*
X38631905Y-78994819D01*
X40108095Y-77994819D02*
X39631905Y-77994819D01*
X39631905Y-77994819D02*
X39584286Y-78471009D01*
X39584286Y-78471009D02*
X39631905Y-78423390D01*
X39631905Y-78423390D02*
X39727143Y-78375771D01*
X39727143Y-78375771D02*
X39965238Y-78375771D01*
X39965238Y-78375771D02*
X40060476Y-78423390D01*
X40060476Y-78423390D02*
X40108095Y-78471009D01*
X40108095Y-78471009D02*
X40155714Y-78566247D01*
X40155714Y-78566247D02*
X40155714Y-78804342D01*
X40155714Y-78804342D02*
X40108095Y-78899580D01*
X40108095Y-78899580D02*
X40060476Y-78947200D01*
X40060476Y-78947200D02*
X39965238Y-78994819D01*
X39965238Y-78994819D02*
X39727143Y-78994819D01*
X39727143Y-78994819D02*
X39631905Y-78947200D01*
X39631905Y-78947200D02*
X39584286Y-78899580D01*
X142512714Y-122869819D02*
X142512714Y-121869819D01*
X142512714Y-121869819D02*
X142750809Y-121869819D01*
X142750809Y-121869819D02*
X142893666Y-121917438D01*
X142893666Y-121917438D02*
X142988904Y-122012676D01*
X142988904Y-122012676D02*
X143036523Y-122107914D01*
X143036523Y-122107914D02*
X143084142Y-122298390D01*
X143084142Y-122298390D02*
X143084142Y-122441247D01*
X143084142Y-122441247D02*
X143036523Y-122631723D01*
X143036523Y-122631723D02*
X142988904Y-122726961D01*
X142988904Y-122726961D02*
X142893666Y-122822200D01*
X142893666Y-122822200D02*
X142750809Y-122869819D01*
X142750809Y-122869819D02*
X142512714Y-122869819D01*
X144036523Y-122869819D02*
X143465095Y-122869819D01*
X143750809Y-122869819D02*
X143750809Y-121869819D01*
X143750809Y-121869819D02*
X143655571Y-122012676D01*
X143655571Y-122012676D02*
X143560333Y-122107914D01*
X143560333Y-122107914D02*
X143465095Y-122155533D01*
X144369857Y-121869819D02*
X145036523Y-121869819D01*
X145036523Y-121869819D02*
X144607952Y-122869819D01*
X145402666Y-58398819D02*
X145402666Y-59113104D01*
X145402666Y-59113104D02*
X145355047Y-59255961D01*
X145355047Y-59255961D02*
X145259809Y-59351200D01*
X145259809Y-59351200D02*
X145116952Y-59398819D01*
X145116952Y-59398819D02*
X145021714Y-59398819D01*
X145783619Y-58398819D02*
X146402666Y-58398819D01*
X146402666Y-58398819D02*
X146069333Y-58779771D01*
X146069333Y-58779771D02*
X146212190Y-58779771D01*
X146212190Y-58779771D02*
X146307428Y-58827390D01*
X146307428Y-58827390D02*
X146355047Y-58875009D01*
X146355047Y-58875009D02*
X146402666Y-58970247D01*
X146402666Y-58970247D02*
X146402666Y-59208342D01*
X146402666Y-59208342D02*
X146355047Y-59303580D01*
X146355047Y-59303580D02*
X146307428Y-59351200D01*
X146307428Y-59351200D02*
X146212190Y-59398819D01*
X146212190Y-59398819D02*
X145926476Y-59398819D01*
X145926476Y-59398819D02*
X145831238Y-59351200D01*
X145831238Y-59351200D02*
X145783619Y-59303580D01*
X138009333Y-136470580D02*
X137961714Y-136518200D01*
X137961714Y-136518200D02*
X137818857Y-136565819D01*
X137818857Y-136565819D02*
X137723619Y-136565819D01*
X137723619Y-136565819D02*
X137580762Y-136518200D01*
X137580762Y-136518200D02*
X137485524Y-136422961D01*
X137485524Y-136422961D02*
X137437905Y-136327723D01*
X137437905Y-136327723D02*
X137390286Y-136137247D01*
X137390286Y-136137247D02*
X137390286Y-135994390D01*
X137390286Y-135994390D02*
X137437905Y-135803914D01*
X137437905Y-135803914D02*
X137485524Y-135708676D01*
X137485524Y-135708676D02*
X137580762Y-135613438D01*
X137580762Y-135613438D02*
X137723619Y-135565819D01*
X137723619Y-135565819D02*
X137818857Y-135565819D01*
X137818857Y-135565819D02*
X137961714Y-135613438D01*
X137961714Y-135613438D02*
X138009333Y-135661057D01*
X138485524Y-136565819D02*
X138676000Y-136565819D01*
X138676000Y-136565819D02*
X138771238Y-136518200D01*
X138771238Y-136518200D02*
X138818857Y-136470580D01*
X138818857Y-136470580D02*
X138914095Y-136327723D01*
X138914095Y-136327723D02*
X138961714Y-136137247D01*
X138961714Y-136137247D02*
X138961714Y-135756295D01*
X138961714Y-135756295D02*
X138914095Y-135661057D01*
X138914095Y-135661057D02*
X138866476Y-135613438D01*
X138866476Y-135613438D02*
X138771238Y-135565819D01*
X138771238Y-135565819D02*
X138580762Y-135565819D01*
X138580762Y-135565819D02*
X138485524Y-135613438D01*
X138485524Y-135613438D02*
X138437905Y-135661057D01*
X138437905Y-135661057D02*
X138390286Y-135756295D01*
X138390286Y-135756295D02*
X138390286Y-135994390D01*
X138390286Y-135994390D02*
X138437905Y-136089628D01*
X138437905Y-136089628D02*
X138485524Y-136137247D01*
X138485524Y-136137247D02*
X138580762Y-136184866D01*
X138580762Y-136184866D02*
X138771238Y-136184866D01*
X138771238Y-136184866D02*
X138866476Y-136137247D01*
X138866476Y-136137247D02*
X138914095Y-136089628D01*
X138914095Y-136089628D02*
X138961714Y-135994390D01*
X125627319Y-104190595D02*
X125627319Y-105000118D01*
X125627319Y-105000118D02*
X125674938Y-105095356D01*
X125674938Y-105095356D02*
X125722557Y-105142976D01*
X125722557Y-105142976D02*
X125817795Y-105190595D01*
X125817795Y-105190595D02*
X126008271Y-105190595D01*
X126008271Y-105190595D02*
X126103509Y-105142976D01*
X126103509Y-105142976D02*
X126151128Y-105095356D01*
X126151128Y-105095356D02*
X126198747Y-105000118D01*
X126198747Y-105000118D02*
X126198747Y-104190595D01*
X126627319Y-104285833D02*
X126674938Y-104238214D01*
X126674938Y-104238214D02*
X126770176Y-104190595D01*
X126770176Y-104190595D02*
X127008271Y-104190595D01*
X127008271Y-104190595D02*
X127103509Y-104238214D01*
X127103509Y-104238214D02*
X127151128Y-104285833D01*
X127151128Y-104285833D02*
X127198747Y-104381071D01*
X127198747Y-104381071D02*
X127198747Y-104476309D01*
X127198747Y-104476309D02*
X127151128Y-104619166D01*
X127151128Y-104619166D02*
X126579700Y-105190595D01*
X126579700Y-105190595D02*
X127198747Y-105190595D01*
X152732318Y-78852297D02*
X152732318Y-77852297D01*
X152732318Y-77852297D02*
X152970413Y-77852297D01*
X152970413Y-77852297D02*
X153113270Y-77899916D01*
X153113270Y-77899916D02*
X153208508Y-77995154D01*
X153208508Y-77995154D02*
X153256127Y-78090392D01*
X153256127Y-78090392D02*
X153303746Y-78280868D01*
X153303746Y-78280868D02*
X153303746Y-78423725D01*
X153303746Y-78423725D02*
X153256127Y-78614201D01*
X153256127Y-78614201D02*
X153208508Y-78709439D01*
X153208508Y-78709439D02*
X153113270Y-78804678D01*
X153113270Y-78804678D02*
X152970413Y-78852297D01*
X152970413Y-78852297D02*
X152732318Y-78852297D01*
X153875175Y-78280868D02*
X153779937Y-78233249D01*
X153779937Y-78233249D02*
X153732318Y-78185630D01*
X153732318Y-78185630D02*
X153684699Y-78090392D01*
X153684699Y-78090392D02*
X153684699Y-78042773D01*
X153684699Y-78042773D02*
X153732318Y-77947535D01*
X153732318Y-77947535D02*
X153779937Y-77899916D01*
X153779937Y-77899916D02*
X153875175Y-77852297D01*
X153875175Y-77852297D02*
X154065651Y-77852297D01*
X154065651Y-77852297D02*
X154160889Y-77899916D01*
X154160889Y-77899916D02*
X154208508Y-77947535D01*
X154208508Y-77947535D02*
X154256127Y-78042773D01*
X154256127Y-78042773D02*
X154256127Y-78090392D01*
X154256127Y-78090392D02*
X154208508Y-78185630D01*
X154208508Y-78185630D02*
X154160889Y-78233249D01*
X154160889Y-78233249D02*
X154065651Y-78280868D01*
X154065651Y-78280868D02*
X153875175Y-78280868D01*
X153875175Y-78280868D02*
X153779937Y-78328487D01*
X153779937Y-78328487D02*
X153732318Y-78376106D01*
X153732318Y-78376106D02*
X153684699Y-78471344D01*
X153684699Y-78471344D02*
X153684699Y-78661820D01*
X153684699Y-78661820D02*
X153732318Y-78757058D01*
X153732318Y-78757058D02*
X153779937Y-78804678D01*
X153779937Y-78804678D02*
X153875175Y-78852297D01*
X153875175Y-78852297D02*
X154065651Y-78852297D01*
X154065651Y-78852297D02*
X154160889Y-78804678D01*
X154160889Y-78804678D02*
X154208508Y-78757058D01*
X154208508Y-78757058D02*
X154256127Y-78661820D01*
X154256127Y-78661820D02*
X154256127Y-78471344D01*
X154256127Y-78471344D02*
X154208508Y-78376106D01*
X154208508Y-78376106D02*
X154160889Y-78328487D01*
X154160889Y-78328487D02*
X154065651Y-78280868D01*
X152455714Y-155194819D02*
X152455714Y-154194819D01*
X152455714Y-154194819D02*
X152693809Y-154194819D01*
X152693809Y-154194819D02*
X152836666Y-154242438D01*
X152836666Y-154242438D02*
X152931904Y-154337676D01*
X152931904Y-154337676D02*
X152979523Y-154432914D01*
X152979523Y-154432914D02*
X153027142Y-154623390D01*
X153027142Y-154623390D02*
X153027142Y-154766247D01*
X153027142Y-154766247D02*
X152979523Y-154956723D01*
X152979523Y-154956723D02*
X152931904Y-155051961D01*
X152931904Y-155051961D02*
X152836666Y-155147200D01*
X152836666Y-155147200D02*
X152693809Y-155194819D01*
X152693809Y-155194819D02*
X152455714Y-155194819D01*
X153979523Y-155194819D02*
X153408095Y-155194819D01*
X153693809Y-155194819D02*
X153693809Y-154194819D01*
X153693809Y-154194819D02*
X153598571Y-154337676D01*
X153598571Y-154337676D02*
X153503333Y-154432914D01*
X153503333Y-154432914D02*
X153408095Y-154480533D01*
X154836666Y-154194819D02*
X154646190Y-154194819D01*
X154646190Y-154194819D02*
X154550952Y-154242438D01*
X154550952Y-154242438D02*
X154503333Y-154290057D01*
X154503333Y-154290057D02*
X154408095Y-154432914D01*
X154408095Y-154432914D02*
X154360476Y-154623390D01*
X154360476Y-154623390D02*
X154360476Y-155004342D01*
X154360476Y-155004342D02*
X154408095Y-155099580D01*
X154408095Y-155099580D02*
X154455714Y-155147200D01*
X154455714Y-155147200D02*
X154550952Y-155194819D01*
X154550952Y-155194819D02*
X154741428Y-155194819D01*
X154741428Y-155194819D02*
X154836666Y-155147200D01*
X154836666Y-155147200D02*
X154884285Y-155099580D01*
X154884285Y-155099580D02*
X154931904Y-155004342D01*
X154931904Y-155004342D02*
X154931904Y-154766247D01*
X154931904Y-154766247D02*
X154884285Y-154671009D01*
X154884285Y-154671009D02*
X154836666Y-154623390D01*
X154836666Y-154623390D02*
X154741428Y-154575771D01*
X154741428Y-154575771D02*
X154550952Y-154575771D01*
X154550952Y-154575771D02*
X154455714Y-154623390D01*
X154455714Y-154623390D02*
X154408095Y-154671009D01*
X154408095Y-154671009D02*
X154360476Y-154766247D01*
X155004666Y-93452819D02*
X155004666Y-94167104D01*
X155004666Y-94167104D02*
X154957047Y-94309961D01*
X154957047Y-94309961D02*
X154861809Y-94405200D01*
X154861809Y-94405200D02*
X154718952Y-94452819D01*
X154718952Y-94452819D02*
X154623714Y-94452819D01*
X156004666Y-94452819D02*
X155433238Y-94452819D01*
X155718952Y-94452819D02*
X155718952Y-93452819D01*
X155718952Y-93452819D02*
X155623714Y-93595676D01*
X155623714Y-93595676D02*
X155528476Y-93690914D01*
X155528476Y-93690914D02*
X155433238Y-93738533D01*
X145472666Y-126734819D02*
X145472666Y-127449104D01*
X145472666Y-127449104D02*
X145425047Y-127591961D01*
X145425047Y-127591961D02*
X145329809Y-127687200D01*
X145329809Y-127687200D02*
X145186952Y-127734819D01*
X145186952Y-127734819D02*
X145091714Y-127734819D01*
X145901238Y-126830057D02*
X145948857Y-126782438D01*
X145948857Y-126782438D02*
X146044095Y-126734819D01*
X146044095Y-126734819D02*
X146282190Y-126734819D01*
X146282190Y-126734819D02*
X146377428Y-126782438D01*
X146377428Y-126782438D02*
X146425047Y-126830057D01*
X146425047Y-126830057D02*
X146472666Y-126925295D01*
X146472666Y-126925295D02*
X146472666Y-127020533D01*
X146472666Y-127020533D02*
X146425047Y-127163390D01*
X146425047Y-127163390D02*
X145853619Y-127734819D01*
X145853619Y-127734819D02*
X146472666Y-127734819D01*
X140915557Y-97871595D02*
X140582224Y-97395404D01*
X140344129Y-97871595D02*
X140344129Y-96871595D01*
X140344129Y-96871595D02*
X140725081Y-96871595D01*
X140725081Y-96871595D02*
X140820319Y-96919214D01*
X140820319Y-96919214D02*
X140867938Y-96966833D01*
X140867938Y-96966833D02*
X140915557Y-97062071D01*
X140915557Y-97062071D02*
X140915557Y-97204928D01*
X140915557Y-97204928D02*
X140867938Y-97300166D01*
X140867938Y-97300166D02*
X140820319Y-97347785D01*
X140820319Y-97347785D02*
X140725081Y-97395404D01*
X140725081Y-97395404D02*
X140344129Y-97395404D01*
X141248891Y-96871595D02*
X141867938Y-96871595D01*
X141867938Y-96871595D02*
X141534605Y-97252547D01*
X141534605Y-97252547D02*
X141677462Y-97252547D01*
X141677462Y-97252547D02*
X141772700Y-97300166D01*
X141772700Y-97300166D02*
X141820319Y-97347785D01*
X141820319Y-97347785D02*
X141867938Y-97443023D01*
X141867938Y-97443023D02*
X141867938Y-97681118D01*
X141867938Y-97681118D02*
X141820319Y-97776356D01*
X141820319Y-97776356D02*
X141772700Y-97823976D01*
X141772700Y-97823976D02*
X141677462Y-97871595D01*
X141677462Y-97871595D02*
X141391748Y-97871595D01*
X141391748Y-97871595D02*
X141296510Y-97823976D01*
X141296510Y-97823976D02*
X141248891Y-97776356D01*
X130963095Y-113224819D02*
X130963095Y-114034342D01*
X130963095Y-114034342D02*
X131010714Y-114129580D01*
X131010714Y-114129580D02*
X131058333Y-114177200D01*
X131058333Y-114177200D02*
X131153571Y-114224819D01*
X131153571Y-114224819D02*
X131344047Y-114224819D01*
X131344047Y-114224819D02*
X131439285Y-114177200D01*
X131439285Y-114177200D02*
X131486904Y-114129580D01*
X131486904Y-114129580D02*
X131534523Y-114034342D01*
X131534523Y-114034342D02*
X131534523Y-113224819D01*
X132534523Y-114224819D02*
X131963095Y-114224819D01*
X132248809Y-114224819D02*
X132248809Y-113224819D01*
X132248809Y-113224819D02*
X132153571Y-113367676D01*
X132153571Y-113367676D02*
X132058333Y-113462914D01*
X132058333Y-113462914D02*
X131963095Y-113510533D01*
X38631905Y-117094819D02*
X38631905Y-116094819D01*
X38631905Y-116094819D02*
X38870000Y-116094819D01*
X38870000Y-116094819D02*
X39012857Y-116142438D01*
X39012857Y-116142438D02*
X39108095Y-116237676D01*
X39108095Y-116237676D02*
X39155714Y-116332914D01*
X39155714Y-116332914D02*
X39203333Y-116523390D01*
X39203333Y-116523390D02*
X39203333Y-116666247D01*
X39203333Y-116666247D02*
X39155714Y-116856723D01*
X39155714Y-116856723D02*
X39108095Y-116951961D01*
X39108095Y-116951961D02*
X39012857Y-117047200D01*
X39012857Y-117047200D02*
X38870000Y-117094819D01*
X38870000Y-117094819D02*
X38631905Y-117094819D01*
X39679524Y-117094819D02*
X39870000Y-117094819D01*
X39870000Y-117094819D02*
X39965238Y-117047200D01*
X39965238Y-117047200D02*
X40012857Y-116999580D01*
X40012857Y-116999580D02*
X40108095Y-116856723D01*
X40108095Y-116856723D02*
X40155714Y-116666247D01*
X40155714Y-116666247D02*
X40155714Y-116285295D01*
X40155714Y-116285295D02*
X40108095Y-116190057D01*
X40108095Y-116190057D02*
X40060476Y-116142438D01*
X40060476Y-116142438D02*
X39965238Y-116094819D01*
X39965238Y-116094819D02*
X39774762Y-116094819D01*
X39774762Y-116094819D02*
X39679524Y-116142438D01*
X39679524Y-116142438D02*
X39631905Y-116190057D01*
X39631905Y-116190057D02*
X39584286Y-116285295D01*
X39584286Y-116285295D02*
X39584286Y-116523390D01*
X39584286Y-116523390D02*
X39631905Y-116618628D01*
X39631905Y-116618628D02*
X39679524Y-116666247D01*
X39679524Y-116666247D02*
X39774762Y-116713866D01*
X39774762Y-116713866D02*
X39965238Y-116713866D01*
X39965238Y-116713866D02*
X40060476Y-116666247D01*
X40060476Y-116666247D02*
X40108095Y-116618628D01*
X40108095Y-116618628D02*
X40155714Y-116523390D01*
X38377905Y-50546819D02*
X38377905Y-49546819D01*
X38377905Y-49546819D02*
X38616000Y-49546819D01*
X38616000Y-49546819D02*
X38758857Y-49594438D01*
X38758857Y-49594438D02*
X38854095Y-49689676D01*
X38854095Y-49689676D02*
X38901714Y-49784914D01*
X38901714Y-49784914D02*
X38949333Y-49975390D01*
X38949333Y-49975390D02*
X38949333Y-50118247D01*
X38949333Y-50118247D02*
X38901714Y-50308723D01*
X38901714Y-50308723D02*
X38854095Y-50403961D01*
X38854095Y-50403961D02*
X38758857Y-50499200D01*
X38758857Y-50499200D02*
X38616000Y-50546819D01*
X38616000Y-50546819D02*
X38377905Y-50546819D01*
X39901714Y-50546819D02*
X39330286Y-50546819D01*
X39616000Y-50546819D02*
X39616000Y-49546819D01*
X39616000Y-49546819D02*
X39520762Y-49689676D01*
X39520762Y-49689676D02*
X39425524Y-49784914D01*
X39425524Y-49784914D02*
X39330286Y-49832533D01*
X76731905Y-78994819D02*
X76731905Y-77994819D01*
X76731905Y-77994819D02*
X76970000Y-77994819D01*
X76970000Y-77994819D02*
X77112857Y-78042438D01*
X77112857Y-78042438D02*
X77208095Y-78137676D01*
X77208095Y-78137676D02*
X77255714Y-78232914D01*
X77255714Y-78232914D02*
X77303333Y-78423390D01*
X77303333Y-78423390D02*
X77303333Y-78566247D01*
X77303333Y-78566247D02*
X77255714Y-78756723D01*
X77255714Y-78756723D02*
X77208095Y-78851961D01*
X77208095Y-78851961D02*
X77112857Y-78947200D01*
X77112857Y-78947200D02*
X76970000Y-78994819D01*
X76970000Y-78994819D02*
X76731905Y-78994819D01*
X78160476Y-77994819D02*
X77970000Y-77994819D01*
X77970000Y-77994819D02*
X77874762Y-78042438D01*
X77874762Y-78042438D02*
X77827143Y-78090057D01*
X77827143Y-78090057D02*
X77731905Y-78232914D01*
X77731905Y-78232914D02*
X77684286Y-78423390D01*
X77684286Y-78423390D02*
X77684286Y-78804342D01*
X77684286Y-78804342D02*
X77731905Y-78899580D01*
X77731905Y-78899580D02*
X77779524Y-78947200D01*
X77779524Y-78947200D02*
X77874762Y-78994819D01*
X77874762Y-78994819D02*
X78065238Y-78994819D01*
X78065238Y-78994819D02*
X78160476Y-78947200D01*
X78160476Y-78947200D02*
X78208095Y-78899580D01*
X78208095Y-78899580D02*
X78255714Y-78804342D01*
X78255714Y-78804342D02*
X78255714Y-78566247D01*
X78255714Y-78566247D02*
X78208095Y-78471009D01*
X78208095Y-78471009D02*
X78160476Y-78423390D01*
X78160476Y-78423390D02*
X78065238Y-78375771D01*
X78065238Y-78375771D02*
X77874762Y-78375771D01*
X77874762Y-78375771D02*
X77779524Y-78423390D01*
X77779524Y-78423390D02*
X77731905Y-78471009D01*
X77731905Y-78471009D02*
X77684286Y-78566247D01*
X129819333Y-140622819D02*
X129486000Y-140146628D01*
X129247905Y-140622819D02*
X129247905Y-139622819D01*
X129247905Y-139622819D02*
X129628857Y-139622819D01*
X129628857Y-139622819D02*
X129724095Y-139670438D01*
X129724095Y-139670438D02*
X129771714Y-139718057D01*
X129771714Y-139718057D02*
X129819333Y-139813295D01*
X129819333Y-139813295D02*
X129819333Y-139956152D01*
X129819333Y-139956152D02*
X129771714Y-140051390D01*
X129771714Y-140051390D02*
X129724095Y-140099009D01*
X129724095Y-140099009D02*
X129628857Y-140146628D01*
X129628857Y-140146628D02*
X129247905Y-140146628D01*
X130295524Y-140622819D02*
X130486000Y-140622819D01*
X130486000Y-140622819D02*
X130581238Y-140575200D01*
X130581238Y-140575200D02*
X130628857Y-140527580D01*
X130628857Y-140527580D02*
X130724095Y-140384723D01*
X130724095Y-140384723D02*
X130771714Y-140194247D01*
X130771714Y-140194247D02*
X130771714Y-139813295D01*
X130771714Y-139813295D02*
X130724095Y-139718057D01*
X130724095Y-139718057D02*
X130676476Y-139670438D01*
X130676476Y-139670438D02*
X130581238Y-139622819D01*
X130581238Y-139622819D02*
X130390762Y-139622819D01*
X130390762Y-139622819D02*
X130295524Y-139670438D01*
X130295524Y-139670438D02*
X130247905Y-139718057D01*
X130247905Y-139718057D02*
X130200286Y-139813295D01*
X130200286Y-139813295D02*
X130200286Y-140051390D01*
X130200286Y-140051390D02*
X130247905Y-140146628D01*
X130247905Y-140146628D02*
X130295524Y-140194247D01*
X130295524Y-140194247D02*
X130390762Y-140241866D01*
X130390762Y-140241866D02*
X130581238Y-140241866D01*
X130581238Y-140241866D02*
X130676476Y-140194247D01*
X130676476Y-140194247D02*
X130724095Y-140146628D01*
X130724095Y-140146628D02*
X130771714Y-140051390D01*
X136763333Y-65961819D02*
X136430000Y-65485628D01*
X136191905Y-65961819D02*
X136191905Y-64961819D01*
X136191905Y-64961819D02*
X136572857Y-64961819D01*
X136572857Y-64961819D02*
X136668095Y-65009438D01*
X136668095Y-65009438D02*
X136715714Y-65057057D01*
X136715714Y-65057057D02*
X136763333Y-65152295D01*
X136763333Y-65152295D02*
X136763333Y-65295152D01*
X136763333Y-65295152D02*
X136715714Y-65390390D01*
X136715714Y-65390390D02*
X136668095Y-65438009D01*
X136668095Y-65438009D02*
X136572857Y-65485628D01*
X136572857Y-65485628D02*
X136191905Y-65485628D01*
X137715714Y-65961819D02*
X137144286Y-65961819D01*
X137430000Y-65961819D02*
X137430000Y-64961819D01*
X137430000Y-64961819D02*
X137334762Y-65104676D01*
X137334762Y-65104676D02*
X137239524Y-65199914D01*
X137239524Y-65199914D02*
X137144286Y-65247533D01*
X114355714Y-117094819D02*
X114355714Y-116094819D01*
X114355714Y-116094819D02*
X114593809Y-116094819D01*
X114593809Y-116094819D02*
X114736666Y-116142438D01*
X114736666Y-116142438D02*
X114831904Y-116237676D01*
X114831904Y-116237676D02*
X114879523Y-116332914D01*
X114879523Y-116332914D02*
X114927142Y-116523390D01*
X114927142Y-116523390D02*
X114927142Y-116666247D01*
X114927142Y-116666247D02*
X114879523Y-116856723D01*
X114879523Y-116856723D02*
X114831904Y-116951961D01*
X114831904Y-116951961D02*
X114736666Y-117047200D01*
X114736666Y-117047200D02*
X114593809Y-117094819D01*
X114593809Y-117094819D02*
X114355714Y-117094819D01*
X115879523Y-117094819D02*
X115308095Y-117094819D01*
X115593809Y-117094819D02*
X115593809Y-116094819D01*
X115593809Y-116094819D02*
X115498571Y-116237676D01*
X115498571Y-116237676D02*
X115403333Y-116332914D01*
X115403333Y-116332914D02*
X115308095Y-116380533D01*
X116831904Y-117094819D02*
X116260476Y-117094819D01*
X116546190Y-117094819D02*
X116546190Y-116094819D01*
X116546190Y-116094819D02*
X116450952Y-116237676D01*
X116450952Y-116237676D02*
X116355714Y-116332914D01*
X116355714Y-116332914D02*
X116260476Y-116380533D01*
X127746333Y-111676580D02*
X127698714Y-111724200D01*
X127698714Y-111724200D02*
X127555857Y-111771819D01*
X127555857Y-111771819D02*
X127460619Y-111771819D01*
X127460619Y-111771819D02*
X127317762Y-111724200D01*
X127317762Y-111724200D02*
X127222524Y-111628961D01*
X127222524Y-111628961D02*
X127174905Y-111533723D01*
X127174905Y-111533723D02*
X127127286Y-111343247D01*
X127127286Y-111343247D02*
X127127286Y-111200390D01*
X127127286Y-111200390D02*
X127174905Y-111009914D01*
X127174905Y-111009914D02*
X127222524Y-110914676D01*
X127222524Y-110914676D02*
X127317762Y-110819438D01*
X127317762Y-110819438D02*
X127460619Y-110771819D01*
X127460619Y-110771819D02*
X127555857Y-110771819D01*
X127555857Y-110771819D02*
X127698714Y-110819438D01*
X127698714Y-110819438D02*
X127746333Y-110867057D01*
X128127286Y-110867057D02*
X128174905Y-110819438D01*
X128174905Y-110819438D02*
X128270143Y-110771819D01*
X128270143Y-110771819D02*
X128508238Y-110771819D01*
X128508238Y-110771819D02*
X128603476Y-110819438D01*
X128603476Y-110819438D02*
X128651095Y-110867057D01*
X128651095Y-110867057D02*
X128698714Y-110962295D01*
X128698714Y-110962295D02*
X128698714Y-111057533D01*
X128698714Y-111057533D02*
X128651095Y-111200390D01*
X128651095Y-111200390D02*
X128079667Y-111771819D01*
X128079667Y-111771819D02*
X128698714Y-111771819D01*
X126801667Y-59806200D02*
X126944524Y-59853819D01*
X126944524Y-59853819D02*
X127182619Y-59853819D01*
X127182619Y-59853819D02*
X127277857Y-59806200D01*
X127277857Y-59806200D02*
X127325476Y-59758580D01*
X127325476Y-59758580D02*
X127373095Y-59663342D01*
X127373095Y-59663342D02*
X127373095Y-59568104D01*
X127373095Y-59568104D02*
X127325476Y-59472866D01*
X127325476Y-59472866D02*
X127277857Y-59425247D01*
X127277857Y-59425247D02*
X127182619Y-59377628D01*
X127182619Y-59377628D02*
X126992143Y-59330009D01*
X126992143Y-59330009D02*
X126896905Y-59282390D01*
X126896905Y-59282390D02*
X126849286Y-59234771D01*
X126849286Y-59234771D02*
X126801667Y-59139533D01*
X126801667Y-59139533D02*
X126801667Y-59044295D01*
X126801667Y-59044295D02*
X126849286Y-58949057D01*
X126849286Y-58949057D02*
X126896905Y-58901438D01*
X126896905Y-58901438D02*
X126992143Y-58853819D01*
X126992143Y-58853819D02*
X127230238Y-58853819D01*
X127230238Y-58853819D02*
X127373095Y-58901438D01*
X127706429Y-58853819D02*
X127944524Y-59853819D01*
X127944524Y-59853819D02*
X128135000Y-59139533D01*
X128135000Y-59139533D02*
X128325476Y-59853819D01*
X128325476Y-59853819D02*
X128563572Y-58853819D01*
X129468333Y-59853819D02*
X128896905Y-59853819D01*
X129182619Y-59853819D02*
X129182619Y-58853819D01*
X129182619Y-58853819D02*
X129087381Y-58996676D01*
X129087381Y-58996676D02*
X128992143Y-59091914D01*
X128992143Y-59091914D02*
X128896905Y-59139533D01*
X132172714Y-147811819D02*
X132172714Y-146811819D01*
X132172714Y-146811819D02*
X132410809Y-146811819D01*
X132410809Y-146811819D02*
X132553666Y-146859438D01*
X132553666Y-146859438D02*
X132648904Y-146954676D01*
X132648904Y-146954676D02*
X132696523Y-147049914D01*
X132696523Y-147049914D02*
X132744142Y-147240390D01*
X132744142Y-147240390D02*
X132744142Y-147383247D01*
X132744142Y-147383247D02*
X132696523Y-147573723D01*
X132696523Y-147573723D02*
X132648904Y-147668961D01*
X132648904Y-147668961D02*
X132553666Y-147764200D01*
X132553666Y-147764200D02*
X132410809Y-147811819D01*
X132410809Y-147811819D02*
X132172714Y-147811819D01*
X133696523Y-147811819D02*
X133125095Y-147811819D01*
X133410809Y-147811819D02*
X133410809Y-146811819D01*
X133410809Y-146811819D02*
X133315571Y-146954676D01*
X133315571Y-146954676D02*
X133220333Y-147049914D01*
X133220333Y-147049914D02*
X133125095Y-147097533D01*
X134267952Y-147240390D02*
X134172714Y-147192771D01*
X134172714Y-147192771D02*
X134125095Y-147145152D01*
X134125095Y-147145152D02*
X134077476Y-147049914D01*
X134077476Y-147049914D02*
X134077476Y-147002295D01*
X134077476Y-147002295D02*
X134125095Y-146907057D01*
X134125095Y-146907057D02*
X134172714Y-146859438D01*
X134172714Y-146859438D02*
X134267952Y-146811819D01*
X134267952Y-146811819D02*
X134458428Y-146811819D01*
X134458428Y-146811819D02*
X134553666Y-146859438D01*
X134553666Y-146859438D02*
X134601285Y-146907057D01*
X134601285Y-146907057D02*
X134648904Y-147002295D01*
X134648904Y-147002295D02*
X134648904Y-147049914D01*
X134648904Y-147049914D02*
X134601285Y-147145152D01*
X134601285Y-147145152D02*
X134553666Y-147192771D01*
X134553666Y-147192771D02*
X134458428Y-147240390D01*
X134458428Y-147240390D02*
X134267952Y-147240390D01*
X134267952Y-147240390D02*
X134172714Y-147288009D01*
X134172714Y-147288009D02*
X134125095Y-147335628D01*
X134125095Y-147335628D02*
X134077476Y-147430866D01*
X134077476Y-147430866D02*
X134077476Y-147621342D01*
X134077476Y-147621342D02*
X134125095Y-147716580D01*
X134125095Y-147716580D02*
X134172714Y-147764200D01*
X134172714Y-147764200D02*
X134267952Y-147811819D01*
X134267952Y-147811819D02*
X134458428Y-147811819D01*
X134458428Y-147811819D02*
X134553666Y-147764200D01*
X134553666Y-147764200D02*
X134601285Y-147716580D01*
X134601285Y-147716580D02*
X134648904Y-147621342D01*
X134648904Y-147621342D02*
X134648904Y-147430866D01*
X134648904Y-147430866D02*
X134601285Y-147335628D01*
X134601285Y-147335628D02*
X134553666Y-147288009D01*
X134553666Y-147288009D02*
X134458428Y-147240390D01*
X140557142Y-127240819D02*
X140223809Y-126764628D01*
X139985714Y-127240819D02*
X139985714Y-126240819D01*
X139985714Y-126240819D02*
X140366666Y-126240819D01*
X140366666Y-126240819D02*
X140461904Y-126288438D01*
X140461904Y-126288438D02*
X140509523Y-126336057D01*
X140509523Y-126336057D02*
X140557142Y-126431295D01*
X140557142Y-126431295D02*
X140557142Y-126574152D01*
X140557142Y-126574152D02*
X140509523Y-126669390D01*
X140509523Y-126669390D02*
X140461904Y-126717009D01*
X140461904Y-126717009D02*
X140366666Y-126764628D01*
X140366666Y-126764628D02*
X139985714Y-126764628D01*
X141509523Y-127240819D02*
X140938095Y-127240819D01*
X141223809Y-127240819D02*
X141223809Y-126240819D01*
X141223809Y-126240819D02*
X141128571Y-126383676D01*
X141128571Y-126383676D02*
X141033333Y-126478914D01*
X141033333Y-126478914D02*
X140938095Y-126526533D01*
X142461904Y-127240819D02*
X141890476Y-127240819D01*
X142176190Y-127240819D02*
X142176190Y-126240819D01*
X142176190Y-126240819D02*
X142080952Y-126383676D01*
X142080952Y-126383676D02*
X141985714Y-126478914D01*
X141985714Y-126478914D02*
X141890476Y-126526533D01*
X76477905Y-50546819D02*
X76477905Y-49546819D01*
X76477905Y-49546819D02*
X76716000Y-49546819D01*
X76716000Y-49546819D02*
X76858857Y-49594438D01*
X76858857Y-49594438D02*
X76954095Y-49689676D01*
X76954095Y-49689676D02*
X77001714Y-49784914D01*
X77001714Y-49784914D02*
X77049333Y-49975390D01*
X77049333Y-49975390D02*
X77049333Y-50118247D01*
X77049333Y-50118247D02*
X77001714Y-50308723D01*
X77001714Y-50308723D02*
X76954095Y-50403961D01*
X76954095Y-50403961D02*
X76858857Y-50499200D01*
X76858857Y-50499200D02*
X76716000Y-50546819D01*
X76716000Y-50546819D02*
X76477905Y-50546819D01*
X77430286Y-49642057D02*
X77477905Y-49594438D01*
X77477905Y-49594438D02*
X77573143Y-49546819D01*
X77573143Y-49546819D02*
X77811238Y-49546819D01*
X77811238Y-49546819D02*
X77906476Y-49594438D01*
X77906476Y-49594438D02*
X77954095Y-49642057D01*
X77954095Y-49642057D02*
X78001714Y-49737295D01*
X78001714Y-49737295D02*
X78001714Y-49832533D01*
X78001714Y-49832533D02*
X77954095Y-49975390D01*
X77954095Y-49975390D02*
X77382667Y-50546819D01*
X77382667Y-50546819D02*
X78001714Y-50546819D01*
X136890333Y-71392819D02*
X136557000Y-70916628D01*
X136318905Y-71392819D02*
X136318905Y-70392819D01*
X136318905Y-70392819D02*
X136699857Y-70392819D01*
X136699857Y-70392819D02*
X136795095Y-70440438D01*
X136795095Y-70440438D02*
X136842714Y-70488057D01*
X136842714Y-70488057D02*
X136890333Y-70583295D01*
X136890333Y-70583295D02*
X136890333Y-70726152D01*
X136890333Y-70726152D02*
X136842714Y-70821390D01*
X136842714Y-70821390D02*
X136795095Y-70869009D01*
X136795095Y-70869009D02*
X136699857Y-70916628D01*
X136699857Y-70916628D02*
X136318905Y-70916628D01*
X137271286Y-70488057D02*
X137318905Y-70440438D01*
X137318905Y-70440438D02*
X137414143Y-70392819D01*
X137414143Y-70392819D02*
X137652238Y-70392819D01*
X137652238Y-70392819D02*
X137747476Y-70440438D01*
X137747476Y-70440438D02*
X137795095Y-70488057D01*
X137795095Y-70488057D02*
X137842714Y-70583295D01*
X137842714Y-70583295D02*
X137842714Y-70678533D01*
X137842714Y-70678533D02*
X137795095Y-70821390D01*
X137795095Y-70821390D02*
X137223667Y-71392819D01*
X137223667Y-71392819D02*
X137842714Y-71392819D01*
X120355333Y-99107580D02*
X120307714Y-99155200D01*
X120307714Y-99155200D02*
X120164857Y-99202819D01*
X120164857Y-99202819D02*
X120069619Y-99202819D01*
X120069619Y-99202819D02*
X119926762Y-99155200D01*
X119926762Y-99155200D02*
X119831524Y-99059961D01*
X119831524Y-99059961D02*
X119783905Y-98964723D01*
X119783905Y-98964723D02*
X119736286Y-98774247D01*
X119736286Y-98774247D02*
X119736286Y-98631390D01*
X119736286Y-98631390D02*
X119783905Y-98440914D01*
X119783905Y-98440914D02*
X119831524Y-98345676D01*
X119831524Y-98345676D02*
X119926762Y-98250438D01*
X119926762Y-98250438D02*
X120069619Y-98202819D01*
X120069619Y-98202819D02*
X120164857Y-98202819D01*
X120164857Y-98202819D02*
X120307714Y-98250438D01*
X120307714Y-98250438D02*
X120355333Y-98298057D01*
X121212476Y-98536152D02*
X121212476Y-99202819D01*
X120974381Y-98155200D02*
X120736286Y-98869485D01*
X120736286Y-98869485D02*
X121355333Y-98869485D01*
X38155714Y-155194819D02*
X38155714Y-154194819D01*
X38155714Y-154194819D02*
X38393809Y-154194819D01*
X38393809Y-154194819D02*
X38536666Y-154242438D01*
X38536666Y-154242438D02*
X38631904Y-154337676D01*
X38631904Y-154337676D02*
X38679523Y-154432914D01*
X38679523Y-154432914D02*
X38727142Y-154623390D01*
X38727142Y-154623390D02*
X38727142Y-154766247D01*
X38727142Y-154766247D02*
X38679523Y-154956723D01*
X38679523Y-154956723D02*
X38631904Y-155051961D01*
X38631904Y-155051961D02*
X38536666Y-155147200D01*
X38536666Y-155147200D02*
X38393809Y-155194819D01*
X38393809Y-155194819D02*
X38155714Y-155194819D01*
X39679523Y-155194819D02*
X39108095Y-155194819D01*
X39393809Y-155194819D02*
X39393809Y-154194819D01*
X39393809Y-154194819D02*
X39298571Y-154337676D01*
X39298571Y-154337676D02*
X39203333Y-154432914D01*
X39203333Y-154432914D02*
X39108095Y-154480533D01*
X40012857Y-154194819D02*
X40631904Y-154194819D01*
X40631904Y-154194819D02*
X40298571Y-154575771D01*
X40298571Y-154575771D02*
X40441428Y-154575771D01*
X40441428Y-154575771D02*
X40536666Y-154623390D01*
X40536666Y-154623390D02*
X40584285Y-154671009D01*
X40584285Y-154671009D02*
X40631904Y-154766247D01*
X40631904Y-154766247D02*
X40631904Y-155004342D01*
X40631904Y-155004342D02*
X40584285Y-155099580D01*
X40584285Y-155099580D02*
X40536666Y-155147200D01*
X40536666Y-155147200D02*
X40441428Y-155194819D01*
X40441428Y-155194819D02*
X40155714Y-155194819D01*
X40155714Y-155194819D02*
X40060476Y-155147200D01*
X40060476Y-155147200D02*
X40012857Y-155099580D01*
X114355714Y-155194819D02*
X114355714Y-154194819D01*
X114355714Y-154194819D02*
X114593809Y-154194819D01*
X114593809Y-154194819D02*
X114736666Y-154242438D01*
X114736666Y-154242438D02*
X114831904Y-154337676D01*
X114831904Y-154337676D02*
X114879523Y-154432914D01*
X114879523Y-154432914D02*
X114927142Y-154623390D01*
X114927142Y-154623390D02*
X114927142Y-154766247D01*
X114927142Y-154766247D02*
X114879523Y-154956723D01*
X114879523Y-154956723D02*
X114831904Y-155051961D01*
X114831904Y-155051961D02*
X114736666Y-155147200D01*
X114736666Y-155147200D02*
X114593809Y-155194819D01*
X114593809Y-155194819D02*
X114355714Y-155194819D01*
X115879523Y-155194819D02*
X115308095Y-155194819D01*
X115593809Y-155194819D02*
X115593809Y-154194819D01*
X115593809Y-154194819D02*
X115498571Y-154337676D01*
X115498571Y-154337676D02*
X115403333Y-154432914D01*
X115403333Y-154432914D02*
X115308095Y-154480533D01*
X116784285Y-154194819D02*
X116308095Y-154194819D01*
X116308095Y-154194819D02*
X116260476Y-154671009D01*
X116260476Y-154671009D02*
X116308095Y-154623390D01*
X116308095Y-154623390D02*
X116403333Y-154575771D01*
X116403333Y-154575771D02*
X116641428Y-154575771D01*
X116641428Y-154575771D02*
X116736666Y-154623390D01*
X116736666Y-154623390D02*
X116784285Y-154671009D01*
X116784285Y-154671009D02*
X116831904Y-154766247D01*
X116831904Y-154766247D02*
X116831904Y-155004342D01*
X116831904Y-155004342D02*
X116784285Y-155099580D01*
X116784285Y-155099580D02*
X116736666Y-155147200D01*
X116736666Y-155147200D02*
X116641428Y-155194819D01*
X116641428Y-155194819D02*
X116403333Y-155194819D01*
X116403333Y-155194819D02*
X116308095Y-155147200D01*
X116308095Y-155147200D02*
X116260476Y-155099580D01*
X109410333Y-101491580D02*
X109362714Y-101539200D01*
X109362714Y-101539200D02*
X109219857Y-101586819D01*
X109219857Y-101586819D02*
X109124619Y-101586819D01*
X109124619Y-101586819D02*
X108981762Y-101539200D01*
X108981762Y-101539200D02*
X108886524Y-101443961D01*
X108886524Y-101443961D02*
X108838905Y-101348723D01*
X108838905Y-101348723D02*
X108791286Y-101158247D01*
X108791286Y-101158247D02*
X108791286Y-101015390D01*
X108791286Y-101015390D02*
X108838905Y-100824914D01*
X108838905Y-100824914D02*
X108886524Y-100729676D01*
X108886524Y-100729676D02*
X108981762Y-100634438D01*
X108981762Y-100634438D02*
X109124619Y-100586819D01*
X109124619Y-100586819D02*
X109219857Y-100586819D01*
X109219857Y-100586819D02*
X109362714Y-100634438D01*
X109362714Y-100634438D02*
X109410333Y-100682057D01*
X109743667Y-100586819D02*
X110410333Y-100586819D01*
X110410333Y-100586819D02*
X109981762Y-101586819D01*
X76255714Y-155194819D02*
X76255714Y-154194819D01*
X76255714Y-154194819D02*
X76493809Y-154194819D01*
X76493809Y-154194819D02*
X76636666Y-154242438D01*
X76636666Y-154242438D02*
X76731904Y-154337676D01*
X76731904Y-154337676D02*
X76779523Y-154432914D01*
X76779523Y-154432914D02*
X76827142Y-154623390D01*
X76827142Y-154623390D02*
X76827142Y-154766247D01*
X76827142Y-154766247D02*
X76779523Y-154956723D01*
X76779523Y-154956723D02*
X76731904Y-155051961D01*
X76731904Y-155051961D02*
X76636666Y-155147200D01*
X76636666Y-155147200D02*
X76493809Y-155194819D01*
X76493809Y-155194819D02*
X76255714Y-155194819D01*
X77779523Y-155194819D02*
X77208095Y-155194819D01*
X77493809Y-155194819D02*
X77493809Y-154194819D01*
X77493809Y-154194819D02*
X77398571Y-154337676D01*
X77398571Y-154337676D02*
X77303333Y-154432914D01*
X77303333Y-154432914D02*
X77208095Y-154480533D01*
X78636666Y-154528152D02*
X78636666Y-155194819D01*
X78398571Y-154147200D02*
X78160476Y-154861485D01*
X78160476Y-154861485D02*
X78779523Y-154861485D01*
X133969333Y-144403580D02*
X133921714Y-144451200D01*
X133921714Y-144451200D02*
X133778857Y-144498819D01*
X133778857Y-144498819D02*
X133683619Y-144498819D01*
X133683619Y-144498819D02*
X133540762Y-144451200D01*
X133540762Y-144451200D02*
X133445524Y-144355961D01*
X133445524Y-144355961D02*
X133397905Y-144260723D01*
X133397905Y-144260723D02*
X133350286Y-144070247D01*
X133350286Y-144070247D02*
X133350286Y-143927390D01*
X133350286Y-143927390D02*
X133397905Y-143736914D01*
X133397905Y-143736914D02*
X133445524Y-143641676D01*
X133445524Y-143641676D02*
X133540762Y-143546438D01*
X133540762Y-143546438D02*
X133683619Y-143498819D01*
X133683619Y-143498819D02*
X133778857Y-143498819D01*
X133778857Y-143498819D02*
X133921714Y-143546438D01*
X133921714Y-143546438D02*
X133969333Y-143594057D01*
X134540762Y-143927390D02*
X134445524Y-143879771D01*
X134445524Y-143879771D02*
X134397905Y-143832152D01*
X134397905Y-143832152D02*
X134350286Y-143736914D01*
X134350286Y-143736914D02*
X134350286Y-143689295D01*
X134350286Y-143689295D02*
X134397905Y-143594057D01*
X134397905Y-143594057D02*
X134445524Y-143546438D01*
X134445524Y-143546438D02*
X134540762Y-143498819D01*
X134540762Y-143498819D02*
X134731238Y-143498819D01*
X134731238Y-143498819D02*
X134826476Y-143546438D01*
X134826476Y-143546438D02*
X134874095Y-143594057D01*
X134874095Y-143594057D02*
X134921714Y-143689295D01*
X134921714Y-143689295D02*
X134921714Y-143736914D01*
X134921714Y-143736914D02*
X134874095Y-143832152D01*
X134874095Y-143832152D02*
X134826476Y-143879771D01*
X134826476Y-143879771D02*
X134731238Y-143927390D01*
X134731238Y-143927390D02*
X134540762Y-143927390D01*
X134540762Y-143927390D02*
X134445524Y-143975009D01*
X134445524Y-143975009D02*
X134397905Y-144022628D01*
X134397905Y-144022628D02*
X134350286Y-144117866D01*
X134350286Y-144117866D02*
X134350286Y-144308342D01*
X134350286Y-144308342D02*
X134397905Y-144403580D01*
X134397905Y-144403580D02*
X134445524Y-144451200D01*
X134445524Y-144451200D02*
X134540762Y-144498819D01*
X134540762Y-144498819D02*
X134731238Y-144498819D01*
X134731238Y-144498819D02*
X134826476Y-144451200D01*
X134826476Y-144451200D02*
X134874095Y-144403580D01*
X134874095Y-144403580D02*
X134921714Y-144308342D01*
X134921714Y-144308342D02*
X134921714Y-144117866D01*
X134921714Y-144117866D02*
X134874095Y-144022628D01*
X134874095Y-144022628D02*
X134826476Y-143975009D01*
X134826476Y-143975009D02*
X134731238Y-143927390D01*
X107315095Y-95960819D02*
X107315095Y-96770342D01*
X107315095Y-96770342D02*
X107362714Y-96865580D01*
X107362714Y-96865580D02*
X107410333Y-96913200D01*
X107410333Y-96913200D02*
X107505571Y-96960819D01*
X107505571Y-96960819D02*
X107696047Y-96960819D01*
X107696047Y-96960819D02*
X107791285Y-96913200D01*
X107791285Y-96913200D02*
X107838904Y-96865580D01*
X107838904Y-96865580D02*
X107886523Y-96770342D01*
X107886523Y-96770342D02*
X107886523Y-95960819D01*
X108267476Y-95960819D02*
X108886523Y-95960819D01*
X108886523Y-95960819D02*
X108553190Y-96341771D01*
X108553190Y-96341771D02*
X108696047Y-96341771D01*
X108696047Y-96341771D02*
X108791285Y-96389390D01*
X108791285Y-96389390D02*
X108838904Y-96437009D01*
X108838904Y-96437009D02*
X108886523Y-96532247D01*
X108886523Y-96532247D02*
X108886523Y-96770342D01*
X108886523Y-96770342D02*
X108838904Y-96865580D01*
X108838904Y-96865580D02*
X108791285Y-96913200D01*
X108791285Y-96913200D02*
X108696047Y-96960819D01*
X108696047Y-96960819D02*
X108410333Y-96960819D01*
X108410333Y-96960819D02*
X108315095Y-96913200D01*
X108315095Y-96913200D02*
X108267476Y-96865580D01*
X139024333Y-58818580D02*
X138976714Y-58866200D01*
X138976714Y-58866200D02*
X138833857Y-58913819D01*
X138833857Y-58913819D02*
X138738619Y-58913819D01*
X138738619Y-58913819D02*
X138595762Y-58866200D01*
X138595762Y-58866200D02*
X138500524Y-58770961D01*
X138500524Y-58770961D02*
X138452905Y-58675723D01*
X138452905Y-58675723D02*
X138405286Y-58485247D01*
X138405286Y-58485247D02*
X138405286Y-58342390D01*
X138405286Y-58342390D02*
X138452905Y-58151914D01*
X138452905Y-58151914D02*
X138500524Y-58056676D01*
X138500524Y-58056676D02*
X138595762Y-57961438D01*
X138595762Y-57961438D02*
X138738619Y-57913819D01*
X138738619Y-57913819D02*
X138833857Y-57913819D01*
X138833857Y-57913819D02*
X138976714Y-57961438D01*
X138976714Y-57961438D02*
X139024333Y-58009057D01*
X139357667Y-57913819D02*
X139976714Y-57913819D01*
X139976714Y-57913819D02*
X139643381Y-58294771D01*
X139643381Y-58294771D02*
X139786238Y-58294771D01*
X139786238Y-58294771D02*
X139881476Y-58342390D01*
X139881476Y-58342390D02*
X139929095Y-58390009D01*
X139929095Y-58390009D02*
X139976714Y-58485247D01*
X139976714Y-58485247D02*
X139976714Y-58723342D01*
X139976714Y-58723342D02*
X139929095Y-58818580D01*
X139929095Y-58818580D02*
X139881476Y-58866200D01*
X139881476Y-58866200D02*
X139786238Y-58913819D01*
X139786238Y-58913819D02*
X139500524Y-58913819D01*
X139500524Y-58913819D02*
X139405286Y-58866200D01*
X139405286Y-58866200D02*
X139357667Y-58818580D01*
X138227095Y-138328819D02*
X138227095Y-139138342D01*
X138227095Y-139138342D02*
X138274714Y-139233580D01*
X138274714Y-139233580D02*
X138322333Y-139281200D01*
X138322333Y-139281200D02*
X138417571Y-139328819D01*
X138417571Y-139328819D02*
X138608047Y-139328819D01*
X138608047Y-139328819D02*
X138703285Y-139281200D01*
X138703285Y-139281200D02*
X138750904Y-139233580D01*
X138750904Y-139233580D02*
X138798523Y-139138342D01*
X138798523Y-139138342D02*
X138798523Y-138328819D01*
X139703285Y-138662152D02*
X139703285Y-139328819D01*
X139465190Y-138281200D02*
X139227095Y-138995485D01*
X139227095Y-138995485D02*
X139846142Y-138995485D01*
X114831905Y-78994819D02*
X114831905Y-77994819D01*
X114831905Y-77994819D02*
X115070000Y-77994819D01*
X115070000Y-77994819D02*
X115212857Y-78042438D01*
X115212857Y-78042438D02*
X115308095Y-78137676D01*
X115308095Y-78137676D02*
X115355714Y-78232914D01*
X115355714Y-78232914D02*
X115403333Y-78423390D01*
X115403333Y-78423390D02*
X115403333Y-78566247D01*
X115403333Y-78566247D02*
X115355714Y-78756723D01*
X115355714Y-78756723D02*
X115308095Y-78851961D01*
X115308095Y-78851961D02*
X115212857Y-78947200D01*
X115212857Y-78947200D02*
X115070000Y-78994819D01*
X115070000Y-78994819D02*
X114831905Y-78994819D01*
X115736667Y-77994819D02*
X116403333Y-77994819D01*
X116403333Y-77994819D02*
X115974762Y-78994819D01*
X133091333Y-136480819D02*
X132615143Y-136480819D01*
X132615143Y-136480819D02*
X132615143Y-135480819D01*
X133948476Y-136480819D02*
X133377048Y-136480819D01*
X133662762Y-136480819D02*
X133662762Y-135480819D01*
X133662762Y-135480819D02*
X133567524Y-135623676D01*
X133567524Y-135623676D02*
X133472286Y-135718914D01*
X133472286Y-135718914D02*
X133377048Y-135766533D01*
X140930333Y-95576580D02*
X140882714Y-95624200D01*
X140882714Y-95624200D02*
X140739857Y-95671819D01*
X140739857Y-95671819D02*
X140644619Y-95671819D01*
X140644619Y-95671819D02*
X140501762Y-95624200D01*
X140501762Y-95624200D02*
X140406524Y-95528961D01*
X140406524Y-95528961D02*
X140358905Y-95433723D01*
X140358905Y-95433723D02*
X140311286Y-95243247D01*
X140311286Y-95243247D02*
X140311286Y-95100390D01*
X140311286Y-95100390D02*
X140358905Y-94909914D01*
X140358905Y-94909914D02*
X140406524Y-94814676D01*
X140406524Y-94814676D02*
X140501762Y-94719438D01*
X140501762Y-94719438D02*
X140644619Y-94671819D01*
X140644619Y-94671819D02*
X140739857Y-94671819D01*
X140739857Y-94671819D02*
X140882714Y-94719438D01*
X140882714Y-94719438D02*
X140930333Y-94767057D01*
X141835095Y-94671819D02*
X141358905Y-94671819D01*
X141358905Y-94671819D02*
X141311286Y-95148009D01*
X141311286Y-95148009D02*
X141358905Y-95100390D01*
X141358905Y-95100390D02*
X141454143Y-95052771D01*
X141454143Y-95052771D02*
X141692238Y-95052771D01*
X141692238Y-95052771D02*
X141787476Y-95100390D01*
X141787476Y-95100390D02*
X141835095Y-95148009D01*
X141835095Y-95148009D02*
X141882714Y-95243247D01*
X141882714Y-95243247D02*
X141882714Y-95481342D01*
X141882714Y-95481342D02*
X141835095Y-95576580D01*
X141835095Y-95576580D02*
X141787476Y-95624200D01*
X141787476Y-95624200D02*
X141692238Y-95671819D01*
X141692238Y-95671819D02*
X141454143Y-95671819D01*
X141454143Y-95671819D02*
X141358905Y-95624200D01*
X141358905Y-95624200D02*
X141311286Y-95576580D01*
X114577905Y-50546819D02*
X114577905Y-49546819D01*
X114577905Y-49546819D02*
X114816000Y-49546819D01*
X114816000Y-49546819D02*
X114958857Y-49594438D01*
X114958857Y-49594438D02*
X115054095Y-49689676D01*
X115054095Y-49689676D02*
X115101714Y-49784914D01*
X115101714Y-49784914D02*
X115149333Y-49975390D01*
X115149333Y-49975390D02*
X115149333Y-50118247D01*
X115149333Y-50118247D02*
X115101714Y-50308723D01*
X115101714Y-50308723D02*
X115054095Y-50403961D01*
X115054095Y-50403961D02*
X114958857Y-50499200D01*
X114958857Y-50499200D02*
X114816000Y-50546819D01*
X114816000Y-50546819D02*
X114577905Y-50546819D01*
X115482667Y-49546819D02*
X116101714Y-49546819D01*
X116101714Y-49546819D02*
X115768381Y-49927771D01*
X115768381Y-49927771D02*
X115911238Y-49927771D01*
X115911238Y-49927771D02*
X116006476Y-49975390D01*
X116006476Y-49975390D02*
X116054095Y-50023009D01*
X116054095Y-50023009D02*
X116101714Y-50118247D01*
X116101714Y-50118247D02*
X116101714Y-50356342D01*
X116101714Y-50356342D02*
X116054095Y-50451580D01*
X116054095Y-50451580D02*
X116006476Y-50499200D01*
X116006476Y-50499200D02*
X115911238Y-50546819D01*
X115911238Y-50546819D02*
X115625524Y-50546819D01*
X115625524Y-50546819D02*
X115530286Y-50499200D01*
X115530286Y-50499200D02*
X115482667Y-50451580D01*
X152677905Y-50546819D02*
X152677905Y-49546819D01*
X152677905Y-49546819D02*
X152916000Y-49546819D01*
X152916000Y-49546819D02*
X153058857Y-49594438D01*
X153058857Y-49594438D02*
X153154095Y-49689676D01*
X153154095Y-49689676D02*
X153201714Y-49784914D01*
X153201714Y-49784914D02*
X153249333Y-49975390D01*
X153249333Y-49975390D02*
X153249333Y-50118247D01*
X153249333Y-50118247D02*
X153201714Y-50308723D01*
X153201714Y-50308723D02*
X153154095Y-50403961D01*
X153154095Y-50403961D02*
X153058857Y-50499200D01*
X153058857Y-50499200D02*
X152916000Y-50546819D01*
X152916000Y-50546819D02*
X152677905Y-50546819D01*
X154106476Y-49880152D02*
X154106476Y-50546819D01*
X153868381Y-49499200D02*
X153630286Y-50213485D01*
X153630286Y-50213485D02*
X154249333Y-50213485D01*
X140930333Y-93417580D02*
X140882714Y-93465200D01*
X140882714Y-93465200D02*
X140739857Y-93512819D01*
X140739857Y-93512819D02*
X140644619Y-93512819D01*
X140644619Y-93512819D02*
X140501762Y-93465200D01*
X140501762Y-93465200D02*
X140406524Y-93369961D01*
X140406524Y-93369961D02*
X140358905Y-93274723D01*
X140358905Y-93274723D02*
X140311286Y-93084247D01*
X140311286Y-93084247D02*
X140311286Y-92941390D01*
X140311286Y-92941390D02*
X140358905Y-92750914D01*
X140358905Y-92750914D02*
X140406524Y-92655676D01*
X140406524Y-92655676D02*
X140501762Y-92560438D01*
X140501762Y-92560438D02*
X140644619Y-92512819D01*
X140644619Y-92512819D02*
X140739857Y-92512819D01*
X140739857Y-92512819D02*
X140882714Y-92560438D01*
X140882714Y-92560438D02*
X140930333Y-92608057D01*
X141787476Y-92512819D02*
X141597000Y-92512819D01*
X141597000Y-92512819D02*
X141501762Y-92560438D01*
X141501762Y-92560438D02*
X141454143Y-92608057D01*
X141454143Y-92608057D02*
X141358905Y-92750914D01*
X141358905Y-92750914D02*
X141311286Y-92941390D01*
X141311286Y-92941390D02*
X141311286Y-93322342D01*
X141311286Y-93322342D02*
X141358905Y-93417580D01*
X141358905Y-93417580D02*
X141406524Y-93465200D01*
X141406524Y-93465200D02*
X141501762Y-93512819D01*
X141501762Y-93512819D02*
X141692238Y-93512819D01*
X141692238Y-93512819D02*
X141787476Y-93465200D01*
X141787476Y-93465200D02*
X141835095Y-93417580D01*
X141835095Y-93417580D02*
X141882714Y-93322342D01*
X141882714Y-93322342D02*
X141882714Y-93084247D01*
X141882714Y-93084247D02*
X141835095Y-92989009D01*
X141835095Y-92989009D02*
X141787476Y-92941390D01*
X141787476Y-92941390D02*
X141692238Y-92893771D01*
X141692238Y-92893771D02*
X141501762Y-92893771D01*
X141501762Y-92893771D02*
X141406524Y-92941390D01*
X141406524Y-92941390D02*
X141358905Y-92989009D01*
X141358905Y-92989009D02*
X141311286Y-93084247D01*
X76255714Y-117094819D02*
X76255714Y-116094819D01*
X76255714Y-116094819D02*
X76493809Y-116094819D01*
X76493809Y-116094819D02*
X76636666Y-116142438D01*
X76636666Y-116142438D02*
X76731904Y-116237676D01*
X76731904Y-116237676D02*
X76779523Y-116332914D01*
X76779523Y-116332914D02*
X76827142Y-116523390D01*
X76827142Y-116523390D02*
X76827142Y-116666247D01*
X76827142Y-116666247D02*
X76779523Y-116856723D01*
X76779523Y-116856723D02*
X76731904Y-116951961D01*
X76731904Y-116951961D02*
X76636666Y-117047200D01*
X76636666Y-117047200D02*
X76493809Y-117094819D01*
X76493809Y-117094819D02*
X76255714Y-117094819D01*
X77779523Y-117094819D02*
X77208095Y-117094819D01*
X77493809Y-117094819D02*
X77493809Y-116094819D01*
X77493809Y-116094819D02*
X77398571Y-116237676D01*
X77398571Y-116237676D02*
X77303333Y-116332914D01*
X77303333Y-116332914D02*
X77208095Y-116380533D01*
X78398571Y-116094819D02*
X78493809Y-116094819D01*
X78493809Y-116094819D02*
X78589047Y-116142438D01*
X78589047Y-116142438D02*
X78636666Y-116190057D01*
X78636666Y-116190057D02*
X78684285Y-116285295D01*
X78684285Y-116285295D02*
X78731904Y-116475771D01*
X78731904Y-116475771D02*
X78731904Y-116713866D01*
X78731904Y-116713866D02*
X78684285Y-116904342D01*
X78684285Y-116904342D02*
X78636666Y-116999580D01*
X78636666Y-116999580D02*
X78589047Y-117047200D01*
X78589047Y-117047200D02*
X78493809Y-117094819D01*
X78493809Y-117094819D02*
X78398571Y-117094819D01*
X78398571Y-117094819D02*
X78303333Y-117047200D01*
X78303333Y-117047200D02*
X78255714Y-116999580D01*
X78255714Y-116999580D02*
X78208095Y-116904342D01*
X78208095Y-116904342D02*
X78160476Y-116713866D01*
X78160476Y-116713866D02*
X78160476Y-116475771D01*
X78160476Y-116475771D02*
X78208095Y-116285295D01*
X78208095Y-116285295D02*
X78255714Y-116190057D01*
X78255714Y-116190057D02*
X78303333Y-116142438D01*
X78303333Y-116142438D02*
X78398571Y-116094819D01*
X104791333Y-114602819D02*
X104458000Y-114126628D01*
X104219905Y-114602819D02*
X104219905Y-113602819D01*
X104219905Y-113602819D02*
X104600857Y-113602819D01*
X104600857Y-113602819D02*
X104696095Y-113650438D01*
X104696095Y-113650438D02*
X104743714Y-113698057D01*
X104743714Y-113698057D02*
X104791333Y-113793295D01*
X104791333Y-113793295D02*
X104791333Y-113936152D01*
X104791333Y-113936152D02*
X104743714Y-114031390D01*
X104743714Y-114031390D02*
X104696095Y-114079009D01*
X104696095Y-114079009D02*
X104600857Y-114126628D01*
X104600857Y-114126628D02*
X104219905Y-114126628D01*
X105362762Y-114031390D02*
X105267524Y-113983771D01*
X105267524Y-113983771D02*
X105219905Y-113936152D01*
X105219905Y-113936152D02*
X105172286Y-113840914D01*
X105172286Y-113840914D02*
X105172286Y-113793295D01*
X105172286Y-113793295D02*
X105219905Y-113698057D01*
X105219905Y-113698057D02*
X105267524Y-113650438D01*
X105267524Y-113650438D02*
X105362762Y-113602819D01*
X105362762Y-113602819D02*
X105553238Y-113602819D01*
X105553238Y-113602819D02*
X105648476Y-113650438D01*
X105648476Y-113650438D02*
X105696095Y-113698057D01*
X105696095Y-113698057D02*
X105743714Y-113793295D01*
X105743714Y-113793295D02*
X105743714Y-113840914D01*
X105743714Y-113840914D02*
X105696095Y-113936152D01*
X105696095Y-113936152D02*
X105648476Y-113983771D01*
X105648476Y-113983771D02*
X105553238Y-114031390D01*
X105553238Y-114031390D02*
X105362762Y-114031390D01*
X105362762Y-114031390D02*
X105267524Y-114079009D01*
X105267524Y-114079009D02*
X105219905Y-114126628D01*
X105219905Y-114126628D02*
X105172286Y-114221866D01*
X105172286Y-114221866D02*
X105172286Y-114412342D01*
X105172286Y-114412342D02*
X105219905Y-114507580D01*
X105219905Y-114507580D02*
X105267524Y-114555200D01*
X105267524Y-114555200D02*
X105362762Y-114602819D01*
X105362762Y-114602819D02*
X105553238Y-114602819D01*
X105553238Y-114602819D02*
X105648476Y-114555200D01*
X105648476Y-114555200D02*
X105696095Y-114507580D01*
X105696095Y-114507580D02*
X105743714Y-114412342D01*
X105743714Y-114412342D02*
X105743714Y-114221866D01*
X105743714Y-114221866D02*
X105696095Y-114126628D01*
X105696095Y-114126628D02*
X105648476Y-114079009D01*
X105648476Y-114079009D02*
X105553238Y-114031390D01*
X149685905Y-113701819D02*
X149685905Y-112701819D01*
X150257333Y-113701819D02*
X149828762Y-113130390D01*
X150257333Y-112701819D02*
X149685905Y-113273247D01*
X151209714Y-113701819D02*
X150638286Y-113701819D01*
X150924000Y-113701819D02*
X150924000Y-112701819D01*
X150924000Y-112701819D02*
X150828762Y-112844676D01*
X150828762Y-112844676D02*
X150733524Y-112939914D01*
X150733524Y-112939914D02*
X150638286Y-112987533D01*
D11*
%TO.C,C10*%
X126531000Y-132487748D02*
X126531000Y-133910252D01*
X128351000Y-132487748D02*
X128351000Y-133910252D01*
%TO.C,Y2*%
X128395000Y-85486000D02*
X128395000Y-88786000D01*
X128395000Y-88786000D02*
X132395000Y-88786000D01*
%TO.C,C12*%
X126834000Y-87244267D02*
X126834000Y-86951733D01*
X127854000Y-87244267D02*
X127854000Y-86951733D01*
%TO.C,C11*%
X130551267Y-84972000D02*
X130258733Y-84972000D01*
X130551267Y-83952000D02*
X130258733Y-83952000D01*
%TO.C,D12*%
X151110000Y-119010000D02*
X151110000Y-122290000D01*
X156709998Y-120651958D02*
G75*
G03*
X151110001Y-119010489I-3039998J1958D01*
G01*
X151110001Y-122289511D02*
G75*
G03*
X156709998Y-120648042I2559999J1639511D01*
G01*
X156170000Y-120650000D02*
G75*
G03*
X151170000Y-120650000I-2500000J0D01*
G01*
X151170000Y-120650000D02*
G75*
G03*
X156170000Y-120650000I2500000J0D01*
G01*
%TO.C,R10*%
X131634724Y-138989500D02*
X131125276Y-138989500D01*
X131634724Y-137944500D02*
X131125276Y-137944500D01*
%TO.C,C1*%
X143003000Y-110748733D02*
X143003000Y-111041267D01*
X141983000Y-110748733D02*
X141983000Y-111041267D01*
%TO.C,D5*%
X36810000Y-80910000D02*
X36810000Y-84190000D01*
X42409998Y-82551958D02*
G75*
G03*
X36810001Y-80910489I-3039998J1958D01*
G01*
X36810001Y-84189511D02*
G75*
G03*
X42409998Y-82548042I2559999J1639511D01*
G01*
X41870000Y-82550000D02*
G75*
G03*
X36870000Y-82550000I-2500000J0D01*
G01*
X36870000Y-82550000D02*
G75*
G03*
X41870000Y-82550000I2500000J0D01*
G01*
%TO.C,D17*%
X141926000Y-125375000D02*
X141926000Y-121075000D01*
X141926000Y-125375000D02*
X136116000Y-125375000D01*
X141926000Y-121075000D02*
X136116000Y-121075000D01*
%TO.C,J3*%
X140081000Y-59944000D02*
X141351000Y-59944000D01*
X140081000Y-61214000D02*
X140081000Y-59944000D01*
X142393929Y-63374000D02*
X142791000Y-63374000D01*
X142393929Y-64134000D02*
X142791000Y-64134000D01*
X142393929Y-65914000D02*
X142791000Y-65914000D01*
X142393929Y-66674000D02*
X142791000Y-66674000D01*
X142393929Y-68454000D02*
X142791000Y-68454000D01*
X142393929Y-69214000D02*
X142791000Y-69214000D01*
X142461000Y-60834000D02*
X142791000Y-60834000D01*
X142461000Y-61594000D02*
X142791000Y-61594000D01*
X142791000Y-59884000D02*
X142791000Y-70164000D01*
X142791000Y-62484000D02*
X145451000Y-62484000D01*
X142791000Y-65024000D02*
X145451000Y-65024000D01*
X142791000Y-67564000D02*
X145451000Y-67564000D01*
X142791000Y-70164000D02*
X145451000Y-70164000D01*
X145451000Y-59884000D02*
X142791000Y-59884000D01*
X145451000Y-60834000D02*
X151451000Y-60834000D01*
X145451000Y-60894000D02*
X151451000Y-60894000D01*
X145451000Y-61014000D02*
X151451000Y-61014000D01*
X145451000Y-61134000D02*
X151451000Y-61134000D01*
X145451000Y-61254000D02*
X151451000Y-61254000D01*
X145451000Y-61374000D02*
X151451000Y-61374000D01*
X145451000Y-61494000D02*
X151451000Y-61494000D01*
X145451000Y-63374000D02*
X151451000Y-63374000D01*
X145451000Y-65914000D02*
X151451000Y-65914000D01*
X145451000Y-68454000D02*
X151451000Y-68454000D01*
X145451000Y-70164000D02*
X145451000Y-59884000D01*
X151451000Y-60834000D02*
X151451000Y-61594000D01*
X151451000Y-61594000D02*
X145451000Y-61594000D01*
X151451000Y-63374000D02*
X151451000Y-64134000D01*
X151451000Y-64134000D02*
X145451000Y-64134000D01*
X151451000Y-65914000D02*
X151451000Y-66674000D01*
X151451000Y-66674000D02*
X145451000Y-66674000D01*
X151451000Y-68454000D02*
X151451000Y-69214000D01*
X151451000Y-69214000D02*
X145451000Y-69214000D01*
%TO.C,C9*%
X134981733Y-135634000D02*
X135274267Y-135634000D01*
X134981733Y-136654000D02*
X135274267Y-136654000D01*
%TO.C,U2*%
X133729000Y-94529000D02*
X133279000Y-94529000D01*
X133279000Y-94529000D02*
X133279000Y-93239000D01*
X126509000Y-94529000D02*
X126959000Y-94529000D01*
X133729000Y-94979000D02*
X133729000Y-94529000D01*
X126509000Y-94979000D02*
X126509000Y-94529000D01*
X133729000Y-101299000D02*
X133729000Y-101749000D01*
X126509000Y-101299000D02*
X126509000Y-101749000D01*
X133729000Y-101749000D02*
X133279000Y-101749000D01*
X126509000Y-101749000D02*
X126959000Y-101749000D01*
%TO.C,D8*%
X150910413Y-80767478D02*
X150910413Y-84047478D01*
X156510411Y-82409436D02*
G75*
G03*
X150910414Y-80767967I-3039998J1958D01*
G01*
X150910414Y-84046989D02*
G75*
G03*
X156510411Y-82405520I2559999J1639511D01*
G01*
X155970413Y-82407478D02*
G75*
G03*
X150970413Y-82407478I-2500000J0D01*
G01*
X150970413Y-82407478D02*
G75*
G03*
X155970413Y-82407478I2500000J0D01*
G01*
%TO.C,D16*%
X151110000Y-157110000D02*
X151110000Y-160390000D01*
X156709998Y-158751958D02*
G75*
G03*
X151110001Y-157110489I-3039998J1958D01*
G01*
X151110001Y-160389511D02*
G75*
G03*
X156709998Y-158748042I2559999J1639511D01*
G01*
X156170000Y-158750000D02*
G75*
G03*
X151170000Y-158750000I-2500000J0D01*
G01*
X151170000Y-158750000D02*
G75*
G03*
X156170000Y-158750000I2500000J0D01*
G01*
%TO.C,J1*%
X156669000Y-105323000D02*
X154069000Y-105323000D01*
X159569000Y-105323000D02*
X161229000Y-105323000D01*
X161229000Y-105323000D02*
X161229000Y-97403000D01*
X151759000Y-104563000D02*
X151759000Y-103413000D01*
X151169000Y-103413000D02*
X151169000Y-102713000D01*
X151759000Y-103413000D02*
X151169000Y-103413000D01*
X151759000Y-99313000D02*
X151759000Y-98163000D01*
X154069000Y-97403000D02*
X156669000Y-97403000D01*
X161229000Y-97403000D02*
X159569000Y-97403000D01*
%TO.C,J2*%
X140151000Y-128280000D02*
X141421000Y-128280000D01*
X140151000Y-129550000D02*
X140151000Y-128280000D01*
X142463929Y-131710000D02*
X142861000Y-131710000D01*
X142463929Y-132470000D02*
X142861000Y-132470000D01*
X142463929Y-134250000D02*
X142861000Y-134250000D01*
X142463929Y-135010000D02*
X142861000Y-135010000D01*
X142463929Y-136790000D02*
X142861000Y-136790000D01*
X142463929Y-137550000D02*
X142861000Y-137550000D01*
X142463929Y-139330000D02*
X142861000Y-139330000D01*
X142463929Y-140090000D02*
X142861000Y-140090000D01*
X142463929Y-141870000D02*
X142861000Y-141870000D01*
X142463929Y-142630000D02*
X142861000Y-142630000D01*
X142531000Y-129170000D02*
X142861000Y-129170000D01*
X142531000Y-129930000D02*
X142861000Y-129930000D01*
X142861000Y-128220000D02*
X142861000Y-143580000D01*
X142861000Y-130820000D02*
X145521000Y-130820000D01*
X142861000Y-133360000D02*
X145521000Y-133360000D01*
X142861000Y-135900000D02*
X145521000Y-135900000D01*
X142861000Y-138440000D02*
X145521000Y-138440000D01*
X142861000Y-140980000D02*
X145521000Y-140980000D01*
X142861000Y-143580000D02*
X145521000Y-143580000D01*
X145521000Y-128220000D02*
X142861000Y-128220000D01*
X145521000Y-129170000D02*
X151521000Y-129170000D01*
X145521000Y-129230000D02*
X151521000Y-129230000D01*
X145521000Y-129350000D02*
X151521000Y-129350000D01*
X145521000Y-129470000D02*
X151521000Y-129470000D01*
X145521000Y-129590000D02*
X151521000Y-129590000D01*
X145521000Y-129710000D02*
X151521000Y-129710000D01*
X145521000Y-129830000D02*
X151521000Y-129830000D01*
X145521000Y-131710000D02*
X151521000Y-131710000D01*
X145521000Y-134250000D02*
X151521000Y-134250000D01*
X145521000Y-136790000D02*
X151521000Y-136790000D01*
X145521000Y-139330000D02*
X151521000Y-139330000D01*
X145521000Y-141870000D02*
X151521000Y-141870000D01*
X145521000Y-143580000D02*
X145521000Y-128220000D01*
X151521000Y-129170000D02*
X151521000Y-129930000D01*
X151521000Y-129930000D02*
X145521000Y-129930000D01*
X151521000Y-131710000D02*
X151521000Y-132470000D01*
X151521000Y-132470000D02*
X145521000Y-132470000D01*
X151521000Y-134250000D02*
X151521000Y-135010000D01*
X151521000Y-135010000D02*
X145521000Y-135010000D01*
X151521000Y-136790000D02*
X151521000Y-137550000D01*
X151521000Y-137550000D02*
X145521000Y-137550000D01*
X151521000Y-139330000D02*
X151521000Y-140090000D01*
X151521000Y-140090000D02*
X145521000Y-140090000D01*
X151521000Y-141870000D02*
X151521000Y-142630000D01*
X151521000Y-142630000D02*
X145521000Y-142630000D01*
%TO.C,R3*%
X137906500Y-96927276D02*
X138415948Y-96927276D01*
X137906500Y-97972276D02*
X138415948Y-97972276D01*
%TO.C,U1*%
X140283000Y-109083000D02*
X140283000Y-115093000D01*
X133463000Y-111333000D02*
X133463000Y-115093000D01*
X140283000Y-115093000D02*
X139023000Y-115093000D01*
X133463000Y-115093000D02*
X134723000Y-115093000D01*
%TO.C,D9*%
X36810000Y-119010000D02*
X36810000Y-122290000D01*
X42409998Y-120651958D02*
G75*
G03*
X36810001Y-119010489I-3039998J1958D01*
G01*
X36810001Y-122289511D02*
G75*
G03*
X42409998Y-120648042I2559999J1639511D01*
G01*
X41870000Y-120650000D02*
G75*
G03*
X36870000Y-120650000I-2500000J0D01*
G01*
X36870000Y-120650000D02*
G75*
G03*
X41870000Y-120650000I2500000J0D01*
G01*
%TO.C,D1*%
X36810000Y-42810000D02*
X36810000Y-46090000D01*
X42409998Y-44451958D02*
G75*
G03*
X36810001Y-42810489I-3039998J1958D01*
G01*
X36810001Y-46089511D02*
G75*
G03*
X42409998Y-44448042I2559999J1639511D01*
G01*
X41870000Y-44450000D02*
G75*
G03*
X36870000Y-44450000I-2500000J0D01*
G01*
X36870000Y-44450000D02*
G75*
G03*
X41870000Y-44450000I2500000J0D01*
G01*
%TO.C,D6*%
X74910000Y-80910000D02*
X74910000Y-84190000D01*
X80509998Y-82551958D02*
G75*
G03*
X74910001Y-80910489I-3039998J1958D01*
G01*
X74910001Y-84189511D02*
G75*
G03*
X80509998Y-82548042I2559999J1639511D01*
G01*
X79970000Y-82550000D02*
G75*
G03*
X74970000Y-82550000I-2500000J0D01*
G01*
X74970000Y-82550000D02*
G75*
G03*
X79970000Y-82550000I2500000J0D01*
G01*
%TO.C,R9*%
X131128276Y-135614500D02*
X131637724Y-135614500D01*
X131128276Y-136659500D02*
X131637724Y-136659500D01*
%TO.C,R1*%
X135786276Y-63239500D02*
X136295724Y-63239500D01*
X135786276Y-64284500D02*
X136295724Y-64284500D01*
%TO.C,D11*%
X113010000Y-119010000D02*
X113010000Y-122290000D01*
X118609998Y-120651958D02*
G75*
G03*
X113010001Y-119010489I-3039998J1958D01*
G01*
X113010001Y-122289511D02*
G75*
G03*
X118609998Y-120648042I2559999J1639511D01*
G01*
X118070000Y-120650000D02*
G75*
G03*
X113070000Y-120650000I-2500000J0D01*
G01*
X113070000Y-120650000D02*
G75*
G03*
X118070000Y-120650000I2500000J0D01*
G01*
%TO.C,C2*%
X131095000Y-110748733D02*
X131095000Y-111041267D01*
X130075000Y-110748733D02*
X130075000Y-111041267D01*
%TO.C,SW1*%
X124905000Y-60219000D02*
X131365000Y-60219000D01*
X124905000Y-60249000D02*
X124905000Y-60219000D01*
X124905000Y-62149000D02*
X124905000Y-64749000D01*
X124905000Y-66679000D02*
X124905000Y-66649000D01*
X124905000Y-66679000D02*
X131365000Y-66679000D01*
X131365000Y-60219000D02*
X131365000Y-60249000D01*
X131365000Y-62149000D02*
X131365000Y-64749000D01*
X131365000Y-66679000D02*
X131365000Y-66649000D01*
%TO.C,D18*%
X135188000Y-145159000D02*
X135188000Y-149459000D01*
X135188000Y-145159000D02*
X140998000Y-145159000D01*
X135188000Y-149459000D02*
X140998000Y-149459000D01*
%TO.C,R11*%
X137773500Y-127738724D02*
X137773500Y-127229276D01*
X138818500Y-127738724D02*
X138818500Y-127229276D01*
%TO.C,D2*%
X74910000Y-42810000D02*
X74910000Y-46090000D01*
X80509998Y-44451958D02*
G75*
G03*
X74910001Y-42810489I-3039998J1958D01*
G01*
X74910001Y-46089511D02*
G75*
G03*
X80509998Y-44448042I2559999J1639511D01*
G01*
X79970000Y-44450000D02*
G75*
G03*
X74970000Y-44450000I-2500000J0D01*
G01*
X74970000Y-44450000D02*
G75*
G03*
X79970000Y-44450000I2500000J0D01*
G01*
%TO.C,R2*%
X135786276Y-68289500D02*
X136295724Y-68289500D01*
X135786276Y-69334500D02*
X136295724Y-69334500D01*
%TO.C,C4*%
X120668267Y-97828000D02*
X120375733Y-97828000D01*
X120668267Y-96808000D02*
X120375733Y-96808000D01*
%TO.C,D13*%
X36810000Y-157110000D02*
X36810000Y-160390000D01*
X42409998Y-158751958D02*
G75*
G03*
X36810001Y-157110489I-3039998J1958D01*
G01*
X36810001Y-160389511D02*
G75*
G03*
X42409998Y-158748042I2559999J1639511D01*
G01*
X41870000Y-158750000D02*
G75*
G03*
X36870000Y-158750000I-2500000J0D01*
G01*
X36870000Y-158750000D02*
G75*
G03*
X41870000Y-158750000I2500000J0D01*
G01*
%TO.C,D15*%
X113010000Y-157110000D02*
X113010000Y-160390000D01*
X118609998Y-158751958D02*
G75*
G03*
X113010001Y-157110489I-3039998J1958D01*
G01*
X113010001Y-160389511D02*
G75*
G03*
X118609998Y-158748042I2559999J1639511D01*
G01*
X118070000Y-158750000D02*
G75*
G03*
X113070000Y-158750000I-2500000J0D01*
G01*
X113070000Y-158750000D02*
G75*
G03*
X118070000Y-158750000I2500000J0D01*
G01*
%TO.C,C7*%
X106671000Y-102357267D02*
X106671000Y-102064733D01*
X107691000Y-102357267D02*
X107691000Y-102064733D01*
%TO.C,D14*%
X74910000Y-157110000D02*
X74910000Y-160390000D01*
X80509998Y-158751958D02*
G75*
G03*
X74910001Y-157110489I-3039998J1958D01*
G01*
X74910001Y-160389511D02*
G75*
G03*
X80509998Y-158748042I2559999J1639511D01*
G01*
X79970000Y-158750000D02*
G75*
G03*
X74970000Y-158750000I-2500000J0D01*
G01*
X74970000Y-158750000D02*
G75*
G03*
X79970000Y-158750000I2500000J0D01*
G01*
%TO.C,C8*%
X136060267Y-142743000D02*
X135767733Y-142743000D01*
X136060267Y-141723000D02*
X135767733Y-141723000D01*
%TO.C,U3*%
X105600000Y-98248000D02*
X105335000Y-98248000D01*
X105335000Y-98248000D02*
X105335000Y-96433000D01*
X89980000Y-98248000D02*
X90245000Y-98248000D01*
X105600000Y-102108000D02*
X105600000Y-98248000D01*
X105600000Y-102108000D02*
X105600000Y-105968000D01*
X89980000Y-102108000D02*
X89980000Y-98248000D01*
X89980000Y-102108000D02*
X89980000Y-105968000D01*
X105600000Y-105968000D02*
X105335000Y-105968000D01*
X89980000Y-105968000D02*
X90245000Y-105968000D01*
%TO.C,C3*%
X136517000Y-60470267D02*
X136517000Y-60177733D01*
X137537000Y-60470267D02*
X137537000Y-60177733D01*
%TO.C,U4*%
X135560000Y-137936000D02*
X133760000Y-137936000D01*
X135560000Y-137936000D02*
X136360000Y-137936000D01*
X135560000Y-141056000D02*
X134760000Y-141056000D01*
X135560000Y-141056000D02*
X136360000Y-141056000D01*
%TO.C,D7*%
X113010000Y-80910000D02*
X113010000Y-84190000D01*
X118609998Y-82551958D02*
G75*
G03*
X113010001Y-80910489I-3039998J1958D01*
G01*
X113010001Y-84189511D02*
G75*
G03*
X118609998Y-82548042I2559999J1639511D01*
G01*
X118070000Y-82550000D02*
G75*
G03*
X113070000Y-82550000I-2500000J0D01*
G01*
X113070000Y-82550000D02*
G75*
G03*
X118070000Y-82550000I2500000J0D01*
G01*
%TO.C,L1*%
X136558000Y-134776000D02*
X129958000Y-134776000D01*
X136558000Y-133076000D02*
X136558000Y-134776000D01*
X136558000Y-128376000D02*
X136558000Y-130076000D01*
X129958000Y-134776000D02*
X129958000Y-133076000D01*
X129958000Y-130076000D02*
X129958000Y-128376000D01*
X129958000Y-128376000D02*
X136558000Y-128376000D01*
%TO.C,C5*%
X138029733Y-94740000D02*
X138322267Y-94740000D01*
X138029733Y-95760000D02*
X138322267Y-95760000D01*
%TO.C,D3*%
X113010000Y-42810000D02*
X113010000Y-46090000D01*
X118609998Y-44451958D02*
G75*
G03*
X113010001Y-42810489I-3039998J1958D01*
G01*
X113010001Y-46089511D02*
G75*
G03*
X118609998Y-44448042I2559999J1639511D01*
G01*
X118070000Y-44450000D02*
G75*
G03*
X113070000Y-44450000I-2500000J0D01*
G01*
X113070000Y-44450000D02*
G75*
G03*
X118070000Y-44450000I2500000J0D01*
G01*
%TO.C,D4*%
X151110000Y-42810000D02*
X151110000Y-46090000D01*
X156709998Y-44451958D02*
G75*
G03*
X151110001Y-42810489I-3039998J1958D01*
G01*
X151110001Y-46089511D02*
G75*
G03*
X156709998Y-44448042I2559999J1639511D01*
G01*
X156170000Y-44450000D02*
G75*
G03*
X151170000Y-44450000I-2500000J0D01*
G01*
X151170000Y-44450000D02*
G75*
G03*
X156170000Y-44450000I2500000J0D01*
G01*
%TO.C,C6*%
X138029733Y-92454000D02*
X138322267Y-92454000D01*
X138029733Y-93474000D02*
X138322267Y-93474000D01*
%TO.C,D10*%
X74910000Y-119010000D02*
X74910000Y-122290000D01*
X80509998Y-120651958D02*
G75*
G03*
X74910001Y-119010489I-3039998J1958D01*
G01*
X74910001Y-122289511D02*
G75*
G03*
X80509998Y-120648042I2559999J1639511D01*
G01*
X79970000Y-120650000D02*
G75*
G03*
X74970000Y-120650000I-2500000J0D01*
G01*
X74970000Y-120650000D02*
G75*
G03*
X79970000Y-120650000I2500000J0D01*
G01*
%TO.C,R8*%
X104019500Y-110672276D02*
X104019500Y-111181724D01*
X102974500Y-110672276D02*
X102974500Y-111181724D01*
%TO.C,K1*%
X154626000Y-112143000D02*
X154626000Y-107843000D01*
X154626000Y-112143000D02*
X147216000Y-112143000D01*
X154626000Y-107843000D02*
X147216000Y-107843000D01*
%TD*%
M02*
