%TF.GenerationSoftware,KiCad,Pcbnew,7.0.10*%
%TF.CreationDate,2024-05-15T16:53:24+02:00*%
%TF.ProjectId,ledrunner,6c656472-756e-46e6-9572-2e6b69636164,rev?*%
%TF.SameCoordinates,Original*%
%TF.FileFunction,Soldermask,Top*%
%TF.FilePolarity,Negative*%
%FSLAX46Y46*%
G04 Gerber Fmt 4.6, Leading zero omitted, Abs format (unit mm)*
G04 Created by KiCad (PCBNEW 7.0.10) date 2024-05-15 16:53:24*
%MOMM*%
%LPD*%
G01*
G04 APERTURE LIST*
G04 Aperture macros list*
%AMRoundRect*
0 Rectangle with rounded corners*
0 $1 Rounding radius*
0 $2 $3 $4 $5 $6 $7 $8 $9 X,Y pos of 4 corners*
0 Add a 4 corners polygon primitive as box body*
4,1,4,$2,$3,$4,$5,$6,$7,$8,$9,$2,$3,0*
0 Add four circle primitives for the rounded corners*
1,1,$1+$1,$2,$3*
1,1,$1+$1,$4,$5*
1,1,$1+$1,$6,$7*
1,1,$1+$1,$8,$9*
0 Add four rect primitives between the rounded corners*
20,1,$1+$1,$2,$3,$4,$5,0*
20,1,$1+$1,$4,$5,$6,$7,0*
20,1,$1+$1,$6,$7,$8,$9,0*
20,1,$1+$1,$8,$9,$2,$3,0*%
G04 Aperture macros list end*
%ADD10RoundRect,0.250000X-0.650000X0.412500X-0.650000X-0.412500X0.650000X-0.412500X0.650000X0.412500X0*%
%ADD11R,1.400000X1.200000*%
%ADD12RoundRect,0.237500X0.237500X-0.300000X0.237500X0.300000X-0.237500X0.300000X-0.237500X-0.300000X0*%
%ADD13RoundRect,0.237500X0.300000X0.237500X-0.300000X0.237500X-0.300000X-0.237500X0.300000X-0.237500X0*%
%ADD14R,1.800000X1.800000*%
%ADD15C,1.800000*%
%ADD16RoundRect,0.237500X0.250000X0.237500X-0.250000X0.237500X-0.250000X-0.237500X0.250000X-0.237500X0*%
%ADD17RoundRect,0.237500X-0.237500X0.300000X-0.237500X-0.300000X0.237500X-0.300000X0.237500X0.300000X0*%
%ADD18RoundRect,0.250000X1.000000X0.900000X-1.000000X0.900000X-1.000000X-0.900000X1.000000X-0.900000X0*%
%ADD19R,1.700000X1.700000*%
%ADD20O,1.700000X1.700000*%
%ADD21RoundRect,0.237500X-0.300000X-0.237500X0.300000X-0.237500X0.300000X0.237500X-0.300000X0.237500X0*%
%ADD22RoundRect,0.075000X-0.075000X0.662500X-0.075000X-0.662500X0.075000X-0.662500X0.075000X0.662500X0*%
%ADD23RoundRect,0.075000X-0.662500X0.075000X-0.662500X-0.075000X0.662500X-0.075000X0.662500X0.075000X0*%
%ADD24C,0.900000*%
%ADD25R,2.500000X0.500000*%
%ADD26R,2.500000X2.000000*%
%ADD27RoundRect,0.237500X-0.250000X-0.237500X0.250000X-0.237500X0.250000X0.237500X-0.250000X0.237500X0*%
%ADD28R,1.500000X2.000000*%
%ADD29R,3.800000X2.000000*%
%ADD30R,1.550000X1.300000*%
%ADD31RoundRect,0.250000X-1.000000X-0.900000X1.000000X-0.900000X1.000000X0.900000X-1.000000X0.900000X0*%
%ADD32RoundRect,0.237500X0.237500X-0.250000X0.237500X0.250000X-0.237500X0.250000X-0.237500X-0.250000X0*%
%ADD33RoundRect,0.150000X-0.150000X0.875000X-0.150000X-0.875000X0.150000X-0.875000X0.150000X0.875000X0*%
%ADD34RoundRect,0.150000X-0.512500X-0.150000X0.512500X-0.150000X0.512500X0.150000X-0.512500X0.150000X0*%
%ADD35R,1.500000X2.400000*%
%ADD36RoundRect,0.237500X-0.237500X0.250000X-0.237500X-0.250000X0.237500X-0.250000X0.237500X0.250000X0*%
%ADD37RoundRect,0.250000X1.500000X0.900000X-1.500000X0.900000X-1.500000X-0.900000X1.500000X-0.900000X0*%
G04 APERTURE END LIST*
D10*
%TO.C,C10*%
X127441000Y-131636500D03*
X127441000Y-134761500D03*
%TD*%
D11*
%TO.C,Y2*%
X129295000Y-87986000D03*
X131495000Y-87986000D03*
X131495000Y-86286000D03*
X129295000Y-86286000D03*
%TD*%
D12*
%TO.C,C12*%
X127344000Y-87960500D03*
X127344000Y-86235500D03*
%TD*%
D13*
%TO.C,C11*%
X131267500Y-84462000D03*
X129542500Y-84462000D03*
%TD*%
D14*
%TO.C,D12*%
X152400000Y-120650000D03*
D15*
X154940000Y-120650000D03*
%TD*%
D16*
%TO.C,R10*%
X132292500Y-138467000D03*
X130467500Y-138467000D03*
%TD*%
D17*
%TO.C,C1*%
X142493000Y-110032500D03*
X142493000Y-111757500D03*
%TD*%
D14*
%TO.C,D5*%
X38100000Y-82550000D03*
D15*
X40640000Y-82550000D03*
%TD*%
D18*
%TO.C,D17*%
X140416000Y-123225000D03*
X136116000Y-123225000D03*
%TD*%
D19*
%TO.C,J3*%
X141351000Y-61214000D03*
D20*
X141351000Y-63754000D03*
X141351000Y-66294000D03*
X141351000Y-68834000D03*
%TD*%
D21*
%TO.C,C9*%
X134265500Y-136144000D03*
X135990500Y-136144000D03*
%TD*%
D22*
%TO.C,U2*%
X132869000Y-93976500D03*
X132369000Y-93976500D03*
X131869000Y-93976500D03*
X131369000Y-93976500D03*
X130869000Y-93976500D03*
X130369000Y-93976500D03*
X129869000Y-93976500D03*
X129369000Y-93976500D03*
X128869000Y-93976500D03*
X128369000Y-93976500D03*
X127869000Y-93976500D03*
X127369000Y-93976500D03*
D23*
X125956500Y-95389000D03*
X125956500Y-95889000D03*
X125956500Y-96389000D03*
X125956500Y-96889000D03*
X125956500Y-97389000D03*
X125956500Y-97889000D03*
X125956500Y-98389000D03*
X125956500Y-98889000D03*
X125956500Y-99389000D03*
X125956500Y-99889000D03*
X125956500Y-100389000D03*
X125956500Y-100889000D03*
D22*
X127369000Y-102301500D03*
X127869000Y-102301500D03*
X128369000Y-102301500D03*
X128869000Y-102301500D03*
X129369000Y-102301500D03*
X129869000Y-102301500D03*
X130369000Y-102301500D03*
X130869000Y-102301500D03*
X131369000Y-102301500D03*
X131869000Y-102301500D03*
X132369000Y-102301500D03*
X132869000Y-102301500D03*
D23*
X134281500Y-100889000D03*
X134281500Y-100389000D03*
X134281500Y-99889000D03*
X134281500Y-99389000D03*
X134281500Y-98889000D03*
X134281500Y-98389000D03*
X134281500Y-97889000D03*
X134281500Y-97389000D03*
X134281500Y-96889000D03*
X134281500Y-96389000D03*
X134281500Y-95889000D03*
X134281500Y-95389000D03*
%TD*%
D14*
%TO.C,D8*%
X152200413Y-82407478D03*
D15*
X154740413Y-82407478D03*
%TD*%
D14*
%TO.C,D16*%
X152400000Y-158750000D03*
D15*
X154940000Y-158750000D03*
%TD*%
D24*
%TO.C,J1*%
X155219000Y-103563000D03*
X155219000Y-99163000D03*
D25*
X152619000Y-102963000D03*
X152619000Y-102163000D03*
X152619000Y-101363000D03*
X152619000Y-100563000D03*
X152619000Y-99763000D03*
D26*
X152619000Y-105763000D03*
X158119000Y-105763000D03*
X152619000Y-96963000D03*
X158119000Y-96963000D03*
%TD*%
D19*
%TO.C,J2*%
X141421000Y-129550000D03*
D20*
X141421000Y-132090000D03*
X141421000Y-134630000D03*
X141421000Y-137170000D03*
X141421000Y-139710000D03*
X141421000Y-142250000D03*
%TD*%
D27*
%TO.C,R3*%
X137248724Y-97449776D03*
X139073724Y-97449776D03*
%TD*%
D28*
%TO.C,U1*%
X139173000Y-110033000D03*
X136873000Y-110033000D03*
D29*
X136873000Y-116333000D03*
D28*
X134573000Y-110033000D03*
%TD*%
D14*
%TO.C,D9*%
X38100000Y-120650000D03*
D15*
X40640000Y-120650000D03*
%TD*%
D14*
%TO.C,D1*%
X38100000Y-44450000D03*
D15*
X40640000Y-44450000D03*
%TD*%
D14*
%TO.C,D6*%
X76200000Y-82550000D03*
D15*
X78740000Y-82550000D03*
%TD*%
D27*
%TO.C,R9*%
X130470500Y-136137000D03*
X132295500Y-136137000D03*
%TD*%
%TO.C,R1*%
X135128500Y-63762000D03*
X136953500Y-63762000D03*
%TD*%
D14*
%TO.C,D11*%
X114300000Y-120650000D03*
D15*
X116840000Y-120650000D03*
%TD*%
D17*
%TO.C,C2*%
X130585000Y-110032500D03*
X130585000Y-111757500D03*
%TD*%
D30*
%TO.C,SW1*%
X124160000Y-61199000D03*
X132110000Y-61199000D03*
X124160000Y-65699000D03*
X132110000Y-65699000D03*
%TD*%
D31*
%TO.C,D18*%
X136698000Y-147309000D03*
X140998000Y-147309000D03*
%TD*%
D32*
%TO.C,R11*%
X138296000Y-128396500D03*
X138296000Y-126571500D03*
%TD*%
D14*
%TO.C,D2*%
X76200000Y-44450000D03*
D15*
X78740000Y-44450000D03*
%TD*%
D27*
%TO.C,R2*%
X135128500Y-68812000D03*
X136953500Y-68812000D03*
%TD*%
D13*
%TO.C,C4*%
X121384500Y-97318000D03*
X119659500Y-97318000D03*
%TD*%
D14*
%TO.C,D13*%
X38100000Y-158750000D03*
D15*
X40640000Y-158750000D03*
%TD*%
D14*
%TO.C,D15*%
X114300000Y-158750000D03*
D15*
X116840000Y-158750000D03*
%TD*%
D12*
%TO.C,C7*%
X107181000Y-103073500D03*
X107181000Y-101348500D03*
%TD*%
D14*
%TO.C,D14*%
X76200000Y-158750000D03*
D15*
X78740000Y-158750000D03*
%TD*%
D13*
%TO.C,C8*%
X136776500Y-142233000D03*
X135051500Y-142233000D03*
%TD*%
D33*
%TO.C,U3*%
X104775000Y-97458000D03*
X103505000Y-97458000D03*
X102235000Y-97458000D03*
X100965000Y-97458000D03*
X99695000Y-97458000D03*
X98425000Y-97458000D03*
X97155000Y-97458000D03*
X95885000Y-97458000D03*
X94615000Y-97458000D03*
X93345000Y-97458000D03*
X92075000Y-97458000D03*
X90805000Y-97458000D03*
X90805000Y-106758000D03*
X92075000Y-106758000D03*
X93345000Y-106758000D03*
X94615000Y-106758000D03*
X95885000Y-106758000D03*
X97155000Y-106758000D03*
X98425000Y-106758000D03*
X99695000Y-106758000D03*
X100965000Y-106758000D03*
X102235000Y-106758000D03*
X103505000Y-106758000D03*
X104775000Y-106758000D03*
%TD*%
D12*
%TO.C,C3*%
X137027000Y-61186500D03*
X137027000Y-59461500D03*
%TD*%
D34*
%TO.C,U4*%
X134422500Y-138546000D03*
X134422500Y-139496000D03*
X134422500Y-140446000D03*
X136697500Y-140446000D03*
X136697500Y-139496000D03*
X136697500Y-138546000D03*
%TD*%
D14*
%TO.C,D7*%
X114300000Y-82550000D03*
D15*
X116840000Y-82550000D03*
%TD*%
D35*
%TO.C,L1*%
X136008000Y-131576000D03*
X130508000Y-131576000D03*
%TD*%
D21*
%TO.C,C5*%
X137313500Y-95250000D03*
X139038500Y-95250000D03*
%TD*%
D14*
%TO.C,D3*%
X114300000Y-44450000D03*
D15*
X116840000Y-44450000D03*
%TD*%
D14*
%TO.C,D4*%
X152400000Y-44450000D03*
D15*
X154940000Y-44450000D03*
%TD*%
D21*
%TO.C,C6*%
X137313500Y-92964000D03*
X139038500Y-92964000D03*
%TD*%
D14*
%TO.C,D10*%
X76200000Y-120650000D03*
D15*
X78740000Y-120650000D03*
%TD*%
D36*
%TO.C,R8*%
X103497000Y-110014500D03*
X103497000Y-111839500D03*
%TD*%
D37*
%TO.C,K1*%
X152616000Y-109993000D03*
X147216000Y-109993000D03*
%TD*%
M02*
