%TF.GenerationSoftware,KiCad,Pcbnew,7.0.10*%
%TF.CreationDate,2024-05-15T16:53:33+02:00*%
%TF.ProjectId,ledrunner,6c656472-756e-46e6-9572-2e6b69636164,rev?*%
%TF.SameCoordinates,Original*%
%TF.FileFunction,Plated,1,2,PTH,Drill*%
%TF.FilePolarity,Positive*%
%FSLAX46Y46*%
G04 Gerber Fmt 4.6, Leading zero omitted, Abs format (unit mm)*
G04 Created by KiCad (PCBNEW 7.0.10) date 2024-05-15 16:53:33*
%MOMM*%
%LPD*%
G01*
G04 APERTURE LIST*
%TA.AperFunction,ViaDrill*%
%ADD10C,0.400000*%
%TD*%
%TA.AperFunction,ComponentDrill*%
%ADD11C,0.900000*%
%TD*%
%TA.AperFunction,ComponentDrill*%
%ADD12C,1.000000*%
%TD*%
G04 APERTURE END LIST*
D10*
X38100000Y-87503000D03*
X38100000Y-114046000D03*
X44577000Y-44450000D03*
X45085000Y-158750000D03*
X80391000Y-51689000D03*
X83566000Y-146177000D03*
X85598000Y-120523000D03*
X89408000Y-86741000D03*
X90805000Y-76708000D03*
X90805000Y-123444000D03*
X92075000Y-77978000D03*
X92075000Y-122555000D03*
X93345000Y-80518000D03*
X93345000Y-120650000D03*
X93345000Y-126873000D03*
X93599000Y-73914000D03*
X93726000Y-55626000D03*
X94615000Y-79248000D03*
X94615000Y-124714000D03*
X95885000Y-56769000D03*
X95885000Y-144018000D03*
X97155000Y-55118000D03*
X97155000Y-145161000D03*
X98425000Y-52070000D03*
X98425000Y-145161000D03*
X99695000Y-53594000D03*
X99695000Y-144018000D03*
X100965000Y-86741000D03*
X100965000Y-88900000D03*
X100965000Y-114554000D03*
X101600000Y-73914000D03*
X101600000Y-126873000D03*
X102235000Y-90170000D03*
X102616000Y-145796000D03*
X103378000Y-54864000D03*
X103505000Y-91440000D03*
X109093000Y-122555000D03*
X115824000Y-113411000D03*
X117983000Y-106934000D03*
X119126000Y-73914000D03*
X120650000Y-120650000D03*
X122249000Y-93293000D03*
X123063000Y-96647000D03*
X123190000Y-88900000D03*
X123825000Y-100457000D03*
X124206000Y-96662000D03*
X124587000Y-126111000D03*
X125984000Y-90170000D03*
X125984000Y-115062000D03*
X125984000Y-126619000D03*
X126746000Y-115951000D03*
X126746000Y-125857000D03*
X127254000Y-91440000D03*
X127508000Y-115062000D03*
X127543000Y-126625223D03*
X128270000Y-115951000D03*
X128270000Y-125857000D03*
X129413000Y-91821000D03*
X129667000Y-95377000D03*
X129794000Y-126111000D03*
X130429000Y-91059000D03*
X131064000Y-97663000D03*
X131953000Y-96774000D03*
X132080000Y-115443000D03*
X132080000Y-116967000D03*
X132295500Y-137287000D03*
X132334000Y-141097000D03*
X132588000Y-126111000D03*
X133858000Y-86868000D03*
X134747000Y-59563000D03*
X135128000Y-92964000D03*
X135128000Y-107442000D03*
X136271000Y-96393000D03*
X136271000Y-99822000D03*
X136525000Y-86868000D03*
X139065000Y-74549000D03*
X141224000Y-86868000D03*
X142367000Y-115443000D03*
X142367000Y-116840000D03*
X144145000Y-90170000D03*
X145415000Y-99822000D03*
X145542000Y-86868000D03*
X145923000Y-103886000D03*
X148082000Y-120650000D03*
X148463000Y-158877000D03*
X148844000Y-44577000D03*
X150114000Y-97028000D03*
X150114000Y-100076000D03*
X155575000Y-109220000D03*
X155575000Y-110871000D03*
X158115000Y-94488000D03*
X158115000Y-108331000D03*
D11*
%TO.C,D1*%
X38100000Y-44450000D03*
%TO.C,D5*%
X38100000Y-82550000D03*
%TO.C,D9*%
X38100000Y-120650000D03*
%TO.C,D13*%
X38100000Y-158750000D03*
%TO.C,D1*%
X40640000Y-44450000D03*
%TO.C,D5*%
X40640000Y-82550000D03*
%TO.C,D9*%
X40640000Y-120650000D03*
%TO.C,D13*%
X40640000Y-158750000D03*
%TO.C,D2*%
X76200000Y-44450000D03*
%TO.C,D6*%
X76200000Y-82550000D03*
%TO.C,D10*%
X76200000Y-120650000D03*
%TO.C,D14*%
X76200000Y-158750000D03*
%TO.C,D2*%
X78740000Y-44450000D03*
%TO.C,D6*%
X78740000Y-82550000D03*
%TO.C,D10*%
X78740000Y-120650000D03*
%TO.C,D14*%
X78740000Y-158750000D03*
%TO.C,D3*%
X114300000Y-44450000D03*
%TO.C,D7*%
X114300000Y-82550000D03*
%TO.C,D11*%
X114300000Y-120650000D03*
%TO.C,D15*%
X114300000Y-158750000D03*
%TO.C,D3*%
X116840000Y-44450000D03*
%TO.C,D7*%
X116840000Y-82550000D03*
%TO.C,D11*%
X116840000Y-120650000D03*
%TO.C,D15*%
X116840000Y-158750000D03*
%TO.C,D8*%
X152200413Y-82407478D03*
%TO.C,D4*%
X152400000Y-44450000D03*
%TO.C,D12*%
X152400000Y-120650000D03*
%TO.C,D16*%
X152400000Y-158750000D03*
%TO.C,D8*%
X154740413Y-82407478D03*
%TO.C,D4*%
X154940000Y-44450000D03*
%TO.C,D12*%
X154940000Y-120650000D03*
%TO.C,D16*%
X154940000Y-158750000D03*
D12*
%TO.C,J3*%
X141351000Y-61214000D03*
X141351000Y-63754000D03*
X141351000Y-66294000D03*
X141351000Y-68834000D03*
%TO.C,J2*%
X141421000Y-129550000D03*
X141421000Y-132090000D03*
X141421000Y-134630000D03*
X141421000Y-137170000D03*
X141421000Y-139710000D03*
X141421000Y-142250000D03*
M02*
